<svg version="1.2" baseProfile="tiny" id="EN" xmlns="http://www.w3.org/2000/svg" x="0" y="0" viewBox="0 0 265 183.6" xml:space="preserve"><path fill="#FFF" d="M54.2 53.7h114.1v124.2H54.2z"/><g fill="#010202"><path d="M0 48.3s78.5-10.2 80.7-10.5c3.4-.6 6.4-1.2 9.2-2 6.4-1.7 12.2-4.4 17.4-7.9 5-3.3 9.6-8.2 14.2-13.5 2.9-3.4 6-7.8 8.8-12V.3c-3.4 5-6.7 9.3-10.1 13.1-4.5 5.1-9.3 9.2-14.2 12.3-5 3.2-10.6 5.6-16.8 7.2-2.7.7-5.7 1.2-9 1.7-2.2.3-4.4.5-6.6.8-.8.1-73.6 7.8-73.6 7.8v5.1z"/><path d="M105.3 35.1c-4.9 2.8-10.6 4.9-16.9 6.1-2.7.5-5.6 1-8.9 1.3-2 .2-3.9.4-5.9.6-1.1.1-2.1.2-3.2.3-24.1 2.2-48 4.5-70.4 6.6v5.1c22.6-2.7 46.7-5.6 70.7-8.3 1.1-.1 2.1-.2 3.2-.4 2-.2 3.9-.4 5.9-.7 3.4-.5 6.4-1 9.2-1.6 6.5-1.5 12.4-3.8 17.5-6.8s9.5-7.3 14.3-12.5c3-3.2 6.3-7.8 9.4-12.1v-1.9c-3.7 5-7.2 9.2-10.6 12.7-4.6 5-9.5 8.9-14.3 11.6z"/><path d="M119 33.9c-4.8 4.4-9.8 7.8-14.9 10.3-5 2.4-10.5 4.1-17 5.1-2.7.4-5.6.8-8.9 1.1L0 56.8v5.1l69.6-7.4 9-.9c3.4-.4 6.4-.8 9-1.3 6.7-1.3 12.4-3.2 17.6-5.8 5.2-2.6 10.5-7 15.3-11.7 3.3-3.1 6.4-7.2 9.8-11.4v-1.7c-3.9 4.8-7.6 8.8-11.3 12.2z"/><path d="M100.1 60.3c-4.6 2.6-8 4-14.5 4.7-3.9.4-8 .6-11.9.8l-5.7.3c-11.8.7-23.5 1.4-35.3 2.2L0 70.5v5.1l33.1-3c10.7-1 23.1-2.1 35.2-3.1l8.8-.7c3.4-.3 6.3-.5 8.9-.9 6.7-.9 12.4-2.2 17.5-4.1 5.5-2 10.6-5.2 15.8-8.9 4.6-3.4 11.1-10 11.1-10.1V43c-4.2 4.1-6.6 6.4-11.2 9.4-5.6 3.7-15 5.6-19.1 7.9z"/><path d="M101.8 69.9c-4.9 1.4-10.5 2.4-17 3-2.6.2-5.5.4-8.7.5l-8.8.4C45.5 74.8 23.9 76 0 77.2v5.1c22.8-1.8 45.2-3.5 67.5-5.1l8.7-.6c3.4-.2 6.2-.5 8.8-.8 6.7-.7 12.4-1.9 17.4-3.5 5.6-1.8 11.1-4.3 16.2-7.7 3.8-2.4 7.6-5.3 11.6-8.8v-.1c-4.4 3.7-8.5 4.6-12.7 7.1-5 3.2-10.3 5.5-15.7 7.1z"/><path d="M100.9 78.3c-5 1.2-10.4 1.9-17 2.4-2.5.2-5.3.3-8.6.4l-8.7.3c-21.9.8-44 1.8-66.7 2.8v5.1c22.5-1.5 44.6-3 66.8-4.4l8.7-.5c3.4-.2 6.2-.4 8.7-.6 6.7-.6 12.2-1.5 17.3-2.8 5.7-1.5 11.3-3.6 16.5-6.4 4-2.1 8.1-4.7 12.3-7.8v-2.2c-4.5 3.3-8.9 5.9-13.2 8.1-5.1 2.4-10.5 4.4-16.1 5.6z"/><path d="M100.2 86.6c-5 .9-10.4 1.5-16.9 1.8-2.5.1-5.1.2-8.6.3L0 90.8v5.1l66.3-3.5 8.6-.4c3.3-.2 6.1-.3 8.6-.5 6.6-.5 12.1-1.2 17.2-2.3 5.8-1.2 11.4-3 16.7-5.2 4.3-1.8 8.5-4 13-6.7v-2c-4.7 2.8-9.3 5-13.7 6.7-5.3 2-10.8 3.6-16.5 4.6z"/><path d="M99.6 94.9c-9.2 1.2-18.6 1.4-27.7 1.5-2.1 0-4.2.1-6.3.1L0 97.7v5.1l65.7-2.8 6.3-.3c9.2-.4 18.7-.7 28-2.2 5.9-.9 11.5-2.3 16.8-4.1 4.4-1.5 8.9-3.4 13.5-5.6v-1.9c-4.8 2.2-9.6 4.1-14.1 5.5-5.3 1.5-10.8 2.7-16.6 3.5zm-.5 8.3c-8.6.7-17.4.7-25.9.7h-7.9c-21.7.1-43.3.3-65.3.5v5.1c20.9-.7 43.1-1.5 65.3-2.1 2.6-.1 5.3-.2 7.9-.2 8.5-.2 17.4-.4 26.1-1.4 6.1-.7 11.6-1.6 16.9-2.9 4.6-1.1 9.3-2.6 14.1-4.5v-1.9c-4.9 1.8-9.8 3.2-14.6 4.2-5.2 1.2-10.6 2-16.6 2.5zm-.3 8.3c-3.6.1-7.5.2-11.9.2h-5l-16.9-.3c-11.5-.1-23-.1-33.8-.1H0v5.1l31.3-.8c10.7-.3 22.3-.5 33.8-.7l16.9-.2c4.6-.1 10.8-.2 16.9-.6 6.1-.4 11.6-1 16.9-1.8 4.8-.8 9.6-1.8 14.5-3v-1.8c-5 1.2-10 2.1-14.8 2.7-5.3.6-10.7 1-16.7 1.3zm-17.1 7.9l-16.9-.2c-21.5-.3-43-.7-64.9-1.1v5.1c20.9-.1 43.1-.3 64.9-.5l16.9-.2c5.7-.1 11.2-.2 16.9-.4 11.6-.4 22-1.2 31.7-2.5v-1.8c-9.7 1-20.1 1.6-31.7 1.7-5.6 0-11.3-.1-16.9-.1zm48.6 8.9L0 125v5.1h130.3z"/></g><path d="M118.6 43.4c-4.9 4-8.8 6.8-14.8 9.2-5.3 2.1-10.9 3-17.4 3.8-4.2.6-8.5 1.4-12.7 1.7-1.7.1-3.4.2-5.1.4L0 63.5v5.1L68.8 62l8.9-.8c3.3-.3 6.2-.7 9-1.1 6.7-1.1 12.4-2.7 17.6-5 5.3-2.4 10.7-6.2 15.8-10.4 3.4-2.9 6.7-6.5 10.3-10.4v-1.8c-4.4 4.3-8 7.9-11.8 10.9z"/><path fill="#010202" stroke="#FFF" d="M167.8 129.8V54.2l-113.1.1v76.4h113.1z"/><path fill="#FFF" d="M112.5 64.6h3.9l-3.2 2.5 1.3 3.9-3.2-2.4-3.2 2.4 1.3-3.9-3.3-2.5h4l1.2-3.9 1.2 3.9zm.1 50.9h4l-3.2 2.4 1.2 3.8-3.2-2.3-3.1 2.3 1.2-3.8-3.2-2.4h3.9l1.2-3.7 1.2 3.7zm12.6-3.4h4l-3.2 2.4 1.2 3.8-3.2-2.3-3.2 2.3 1.3-3.8-3.2-2.4h3.9l1.2-3.7 1.2 3.7zm0-44.1h4l-3.2 2.4 1.2 3.8-3.2-2.4-3.2 2.4 1.3-3.8-3.2-2.4h3.9l1.2-3.7 1.2 3.7zm9.4 9.3h3.9l-3.2 2.4 1.3 3.8-3.2-2.3-3.2 2.3 1.3-3.8-3.3-2.4h4l1.2-3.7 1.2 3.7zm0 25.6h3.9l-3.2 2.4 1.3 3.8-3.2-2.3-3.2 2.3 1.3-3.8-3.3-2.4h4l1.2-3.7 1.2 3.7zm3.5-13h3.9l-3.2 2.4 1.3 3.8-3.2-2.3-3.2 2.3 1.3-3.8-3.3-2.4h4l1.2-3.7 1.2 3.7zM99.6 68h4l-3.2 2.4 1.2 3.8-3.1-2.3-3.2 2.3 1.2-3.8-3.2-2.4h4l1.2-3.7 1.1 3.7zm-9.1 9.4h4l-3.2 2.4 1.2 3.8-3.1-2.4-3.2 2.4 1.2-3.8-3.2-2.4h4l1.2-3.7 1.1 3.7zM87.2 90h3.9l-3.2 2.4 1.3 3.8-3.2-2.4-3.2 2.4 1.3-3.8-3.3-2.4h4l1.2-3.8 1.2 3.8zm3.3 12.9h4l-3.2 2.4 1.2 3.9-3.1-2.4-3.2 2.4 1.2-3.9-3.2-2.4h4l1.2-3.7 1.1 3.7zm9.3 9.3h3.9l-3.2 2.4 1.3 3.8-3.2-2.4-3.2 2.4 1.3-3.8-3.3-2.4h4l1.2-3.7 1.2 3.7z"/><path fill="#010202" d="M54.2 183.6h114.1V177H54.2v6.6zM184.4 0s23.9 37.1 28.2 43.9c4.4 6.8 9.3 12.2 27 15.9 17.6 3.7 25.3 5.4 25.3 5.4v1.3s-11.2-2.3-25.6-5.5c-14.4-3.2-20.3-4.2-26.9-13.2-5.5-7.5-28-39.1-28-39.1V0z"/><path fill="#010202" d="M184.4 10.5s24.6 35.3 27.9 39.6c3.3 4.3 7.7 11.3 27.2 15.4 5 1.1 25.5 5.1 25.5 5.1v1.1s-15.6-3-25.5-5.1c-10-2.1-20.4-4-27.1-12.4-6.1-7.6-28-35.8-28-35.8v-7.9z"/><path fill="#010202" d="M184.4 21.1s23.2 30 27.9 36c4.7 6 11.2 10.9 27.2 14 9.2 1.8 25.5 4.7 25.5 4.7V77s-14.2-2.6-25.5-4.7c-11.2-2-20.5-4-27.2-11.4-5.8-6.5-28-32.2-28-32.2l.1-7.6z"/><path fill="#010202" d="M184.3 31.5s23.5 27.2 28 32c7 7.5 10.5 10.2 27.1 13.3 6.7 1.3 25.5 4.5 25.5 4.5v1.2s-15.6-2.8-25.5-4.5c-9.9-1.7-18.2-2.4-27.2-10.9-6.8-6.5-27.9-28.6-27.9-28.6v-7z"/><path fill="#010202" d="M184.4 42.4s21.7 22.3 28 28.7c6.7 6.8 15.2 9.3 27 11.4 11.3 2 25.5 4.3 25.5 4.3v1.3s-13.4-2.1-25.5-4.2c-11.9-2-20.3-3.1-27.1-9.3-6.1-5.5-27.9-25.5-27.9-25.5v-6.7z"/><path fill="#010202" d="M184.4 52.4s20.6 18.8 28 25.2c6.8 5.9 12.2 7.7 27.1 10.3 14.9 2.6 25.5 4.2 25.5 4.2v1.3s-13.4-2.2-25.5-4c-12.1-1.9-19.8-2.6-27-8.4-8.3-6.6-28-22.5-28-22.5v-6.1z"/><path fill="#010202" d="M184.3 63.1s23.6 18.3 28 21.5c4.4 3.2 10.2 6.9 27.2 9.3 16.8 2.4 25.4 3.6 25.4 3.6v1.4s-15.2-2.2-25.4-3.4c-10.2-1.3-18-1.8-27.1-7.7-8.9-5.8-28-19-28-19l-.1-5.7z"/><path fill="#010202" d="M184.3 73.4s23.6 15.4 28.1 17.8c4.5 2.4 9.7 6.4 27 8.6 17.3 2.2 25.4 3.1 25.4 3.1v1.3s-14.3-1.5-25.5-2.7c-11.2-1.2-18.8-2.8-27.1-7.2-8.3-4.5-27.9-15.7-27.9-15.7v-5.2z"/><path fill="#010202" d="M184.4 83.7s20.9 11.1 28 14.6c7.9 3.9 14.7 5.7 27.1 7.2 12.1 1.4 25.5 2.8 25.5 2.8v1.3s-12.3-1.3-25.5-2.5c-13-1.2-17.7-1.8-27.1-5.9-8.4-3.7-28-12.6-28-12.6v-4.9z"/><path fill="#010202" d="M184.4 94.1s16.4 6.9 28.1 11.4c11.4 4.4 20.1 4.8 27.1 5.6 3.1.3 25.3 2.6 25.3 2.6v1.3s-13.3-1-25.4-2.1c-12.1-1-17.3-1.5-27.1-4.7-9.9-3.2-28-9.4-28-9.4v-4.7zm0 10.6s16.7 5.1 28.1 8c11.4 2.9 21.8 4.1 27.1 4.5 5.3.3 25.3 2 25.3 2v1.2s-11.4-.8-25.4-1.7c-11.3-.8-20.4-1.6-27.1-3.1-7.4-1.6-28-6.4-28-6.4v-4.5zm-.1 10.5s13.7 2.3 28.1 4.6c10.8 1.8 25.5 2.9 27 2.9 1.6.1 25.5 1.7 25.5 1.7v1.3s-15.3-.8-25.5-1.3c-10.6-.6-21.1-1.2-27.1-1.8-13.4-1.4-28-3.2-28-3.2v-4.2zm.1 10.8s21.5.8 28.1.9c6.5.1 52.5 2 52.5 2v1.3h-80.5V126zM60.8 137.6c0-.2.1-.4.4-.4h6.6c.2 0 .3.1.3.3v1.1c0 .2-.1.3-.4.3h-4.9v3.1h4.4c.2 0 .4.1.4.3v1.1c0 .2-.1.3-.4.3h-4.4v3.5h5c.2 0 .3.1.3.3v1.1c0 .2-.1.3-.3.3h-6.7c-.3 0-.4-.1-.4-.3v-11zm15.8 11.6h-1.3c-.3 0-.3-.1-.3-.3v-.6c-.7.5-1.9 1.1-3 1.1-2.4 0-2.7-1.4-2.7-3.3v-5.3c0-.2.1-.4.3-.4h1.3c.2 0 .3.1.3.4v5.1c0 1.1.2 1.8 1.3 1.8.8 0 2-.6 2.4-.8v-6c0-.2.1-.4.3-.4h1.3c.3 0 .3.1.3.4v8.1c.1.1 0 .2-.2.2zm3.8-.3c0 .2-.1.3-.3.3h-1.3c-.3 0-.3-.1-.3-.3v-8.1c0-.2.1-.4.3-.4h1.3c.3 0 .4.1.4.4v.8c.5-.5 1.8-1.1 2.7-1.3.2-.1.4 0 .4.3l.1 1.2c0 .3 0 .4-.3.4-1 .2-2.3.6-2.9.8v5.9zm7.6.5c-3.6 0-3.9-2.6-3.9-4.7 0-1.7.4-4.4 3.9-4.4s4 2.3 4 4.4c0 2-.3 4.7-4 4.7zm0-7.5c-1.5 0-1.9 1-1.9 2.8 0 1.9.3 2.8 1.9 2.8 1.6 0 2-.9 2-2.8 0-1.8-.3-2.8-2-2.8zm9.2 7.5c-.6 0-1.4-.1-2.3-.4v3.2c0 .2-.1.4-.3.4h-1.3c-.3 0-.3-.1-.3-.4v-11.4c0-.2.1-.4.3-.4h1.3c.3 0 .3.1.3.4v.5h.1c.6-.5 1.8-1.1 2.8-1.1 2.4 0 3 1.8 3 4.5 0 3-.7 4.7-3.6 4.7zm.2-7.4c-.7 0-1.9.5-2.4.8v4.5c.8.2 1.5.3 2.1.3 1.3 0 1.7-.7 1.7-2.9 0-2.3-.5-2.7-1.4-2.7zm6.5 3.3c.1 1.8.7 2.3 2.2 2.3.6 0 1.7-.1 2.3-.2.3 0 .4 0 .5.3l.1.6c.1.3 0 .4-.3.6-.7.3-2 .5-2.9.5-3.4 0-3.9-2.2-3.9-4.5 0-1.7.3-4.6 3.8-4.6 3.2 0 3.8 2.1 3.9 4 0 .6-.2 1.1-.9 1.1h-4.8zm0-1.3h3.6c0-1.1-.3-2.2-1.8-2.2-1.3 0-1.7.8-1.8 2.2zm12.1 4.2c-.9.7-2.1 1.2-3.3 1.2-1.9 0-2.5-1-2.5-2.6 0-2.1 1.1-3 3.4-3h2.3v-.5c0-1.1-.4-1.5-1.9-1.5-.6 0-1.7.1-2.4.2-.4.1-.5 0-.5-.2l-.2-.7c0-.2 0-.4.4-.5.8-.3 2.2-.4 3-.4 3.1 0 3.5 1.3 3.5 3.3v3.5c0 .7.1.8.6.8.3 0 .3.1.3.3v.8c0 .2-.1.3-.4.4-.3.1-.6.1-.8.1-.7-.1-1.2-.4-1.5-1.2zm-.1-3h-2.2c-.9 0-1.5.3-1.5 1.5 0 .8.3 1 1.1 1s1.9-.5 2.6-.8v-1.7zm10.8 4h-1.3c-.2 0-.3-.1-.3-.3v-5.1c0-1.1-.3-1.8-1.3-1.8-.7 0-2 .6-2.5.8v6c0 .2-.1.3-.3.3h-1.3c-.3 0-.3-.1-.3-.3v-8.1c0-.2.1-.4.3-.4h1.3c.3 0 .3.1.3.4v.5h.1c.7-.5 1.9-1.1 3-1.1 2.4 0 2.6 1.6 2.6 3.4v5.2c.1.4 0 .5-.3.5zm-61.2 6.9c.9 0 2.3.1 3.3.5.3.1.4.3.3.6l-.2.7c-.1.2-.1.3-.5.3-.9-.1-2-.2-2.9-.2-2.4 0-2.8 2-2.8 4.3 0 2.4.5 4.2 2.8 4.2 1 0 1.9-.1 2.9-.2.3 0 .4.1.5.3l.1.7c.1.3 0 .5-.3.6-.9.4-2.4.5-3.3.5-4 0-4.9-3-4.9-6 .2-3.1.9-6.3 5-6.3zm7.7 12.3c-3.6 0-3.9-2.6-3.9-4.7 0-1.7.4-4.4 3.9-4.4s4 2.3 4 4.4c0 2-.2 4.7-4 4.7zm0-7.5c-1.5 0-1.9 1-1.9 2.8 0 1.9.3 2.8 1.9 2.8 1.6 0 2-.9 2-2.8 0-1.8-.3-2.8-2-2.8zm17.6 7.3h-1.3c-.3 0-.3-.1-.3-.3v-5.1c0-1.3-.3-1.7-1.2-1.7-.7 0-1.7.5-2.3.8v6c0 .2-.1.3-.3.3H84c-.2 0-.3-.1-.3-.3v-5.2c0-1.1-.3-1.6-1.2-1.6-.6 0-1.6.5-2.3.8v6c0 .2-.1.3-.3.3h-1.3c-.2 0-.3-.1-.3-.3v-8.1c0-.2.1-.4.3-.4h1.3c.3 0 .4.1.4.4v.5c.7-.5 1.7-1 2.7-1.1 1 0 1.9.2 2.5 1.3.9-.7 2-1.3 3.2-1.3 2.4 0 2.6 1.5 2.6 3.3v5.3c-.2.3-.2.4-.5.4zm14.1 0h-1.3c-.3 0-.3-.1-.3-.3v-5.1c0-1.3-.3-1.7-1.2-1.7-.7 0-1.7.5-2.3.8v6c0 .2-.1.3-.3.3h-1.3c-.2 0-.3-.1-.3-.3v-5.2c0-1.1-.3-1.6-1.2-1.6-.6 0-1.6.5-2.3.8v6c0 .2-.1.3-.3.3h-1.3c-.2 0-.3-.1-.3-.3v-8.1c0-.2.1-.4.3-.4h1.3c.3 0 .4.1.4.4v.5c.7-.5 1.7-1 2.7-1.1 1 0 1.9.2 2.5 1.3.9-.7 2-1.3 3.2-1.3 2.4 0 2.6 1.5 2.6 3.3v5.3c-.2.3-.3.4-.6.4zm2.8-10.1c-.9 0-1.1-.5-1.1-1 0-.6.2-1 1.1-1 .9 0 1.1.4 1.1 1 0 .5-.2 1-1.1 1zm1 9.8c0 .2-.1.3-.3.3h-1.3c-.3 0-.4-.1-.4-.3v-8.1c0-.3.1-.3.4-.3h1.3c.3 0 .3.1.3.3v8.1zm4.5.5c-.9 0-2.1-.1-2.8-.4-.4-.1-.4-.3-.4-.6l.1-.6c.1-.3.2-.3.5-.3.8.1 1.9.2 2.6.2 1.2 0 1.6-.3 1.6-1 0-.8-.3-1-1.4-1.2-1.8-.3-3.3-.6-3.3-2.6 0-1.8 1.4-2.7 3.4-2.7.7 0 2 .1 2.7.4.3.1.4.3.4.5l-.1.6c-.1.3-.2.3-.5.3-.8-.1-1.8-.2-2.4-.2-1.2 0-1.4.3-1.4 1s.4.8 1.5 1c1.7.3 3.3.6 3.3 2.7-.2 2.2-2 2.9-3.8 2.9zm7.5 0c-.9 0-2.1-.1-2.8-.4-.4-.1-.4-.3-.4-.6l.1-.6c.1-.3.2-.3.5-.3.8.1 1.9.2 2.6.2 1.2 0 1.6-.3 1.6-1 0-.8-.3-1-1.4-1.2-1.8-.3-3.3-.6-3.3-2.6 0-1.8 1.4-2.7 3.4-2.7.7 0 2 .1 2.7.4.3.1.4.3.4.5l-.1.6c-.1.3-.2.3-.5.3-.8-.1-1.8-.2-2.4-.2-1.2 0-1.4.3-1.4 1s.4.8 1.5 1c1.7.3 3.3.6 3.3 2.7-.2 2.2-1.9 2.9-3.8 2.9zm5.8-10.3c-.9 0-1.1-.5-1.1-1 0-.6.2-1 1.1-1 .9 0 1.1.4 1.1 1 0 .5-.2 1-1.1 1zm1 9.8c0 .2-.1.3-.3.3h-1.3c-.3 0-.4-.1-.4-.3v-8.1c0-.3.1-.3.4-.3h1.3c.3 0 .3.1.3.3v8.1zm5.2.5c-3.6 0-3.9-2.6-3.9-4.7 0-1.7.4-4.4 3.9-4.4s4 2.3 4 4.4c0 2-.3 4.7-4 4.7zm0-7.5c-1.5 0-1.9 1-1.9 2.8 0 1.9.3 2.8 1.9 2.8 1.6 0 2-.9 2-2.8-.1-1.8-.4-2.8-2-2.8zm12.3 7.3h-1.3c-.2 0-.3-.1-.3-.3v-5.1c0-1.1-.3-1.8-1.3-1.8-.7 0-2 .6-2.5.8v6c0 .2-.1.3-.3.3H138c-.3 0-.3-.1-.3-.3v-8.1c0-.2.1-.4.3-.4h1.3c.3 0 .3.1.3.4v.5h.1c.7-.5 1.9-1.1 3-1.1 2.4 0 2.6 1.6 2.6 3.4v5.2c0 .4 0 .5-.3.5z"/></svg>