<?xml version="1.0" encoding="utf-8"?>
<!-- Generator: Adobe Illustrator 25.1.0, SVG Export Plug-In . SVG Version: 6.00 Build 0)  -->
<svg version="1.1" id="Layer_1" xmlns="http://www.w3.org/2000/svg" xmlns:xlink="http://www.w3.org/1999/xlink" x="0px" y="0px"
	 viewBox="0 0 311.39 75.43" style="enable-background:new 0 0 311.39 75.43;" xml:space="preserve">
<style type="text/css">
	.st0{fill:#0033CC;}
</style>
<path class="st0" d="M105.12,41.82v4.63c0,2.12-1.73,3.85-3.85,3.85h-1.82c-0.05,0-0.1-0.01-0.16-0.02v3.94
	c0,2.12-1.73,3.85-3.85,3.85H93.7v1.59c0,2.12-1.73,3.85-3.85,3.85h-7.87c-2.12,0-3.85-1.73-3.85-3.85v-0.88
	c-0.23,0.04-0.46,0.07-0.69,0.07H64.75c-2.12,0-3.85-1.73-3.85-3.85v-1.82c0-0.19,0.03-0.37,0.06-0.55h-1.67
	c-2.12,0-3.85-1.73-3.85-3.85v-6.96c0-2.12,1.73-3.85,3.85-3.85h1.3c-0.02-0.17-0.05-0.34-0.05-0.51V27.06
	c0-0.13,0.03-0.25,0.04-0.38h-1.36c-2.12,0-3.85-1.73-3.85-3.85v-6.98c0-2.12,1.73-3.85,3.85-3.85h1.82c2.12,0,3.85,1.73,3.85,3.85
	v6.98c0,0.13-0.03,0.25-0.04,0.38h1.36c2.12,0,3.85,1.73,3.85,3.85v10.39c0,2.12-1.73,3.85-3.85,3.85h-1.3
	c0.02,0.17,0.05,0.34,0.05,0.51v6.96c0,0.19-0.03,0.37-0.06,0.55h12.53c2.12,0,3.85,1.73,3.85,3.85v0.88
	c0.23-0.04,0.46-0.07,0.69-0.07h7.55v-3.95c0-2.12,1.73-3.85,3.85-3.85h2.06c0.05,0,0.1,0.01,0.16,0.02v-4.39
	c0-0.18,0.03-0.34,0.05-0.51h-1.22c-2.12,0-3.85-1.73-3.85-3.85V27.06c0-2.12,1.73-3.85,3.85-3.85h1.13
	c-0.01-0.13-0.04-0.25-0.04-0.38v-6.98c0-2.12,1.73-3.85,3.85-3.85h1.82c2.12,0,3.85,1.73,3.85,3.85v6.98
	c0,2.12-1.73,3.85-3.85,3.85h-1.13c0.01,0.13,0.04,0.25,0.04,0.38v10.39c0,0.18-0.03,0.34-0.05,0.51h1.22
	C103.39,37.97,105.12,39.69,105.12,41.82z M247.29,60.75L247.29,60.75l-1.14,1.42c-0.64,0.8-1.56,1.31-2.58,1.42
	c-0.14,0.02-0.29,0.02-0.43,0.02c-0.87,0-1.71-0.29-2.4-0.84l-14.15-11.33c-0.63,0.46-1.4,0.73-2.24,0.73h-19.62
	c-2.12,0-3.85-1.73-3.85-3.85V46.5c0-0.6,0.15-1.17,0.4-1.68h-5.95l-7.25,9.12c-0.64,0.8-1.55,1.31-2.58,1.43
	c-0.15,0.02-0.3,0.03-0.45,0.03c-0.87,0-1.7-0.29-2.39-0.84l-1.42-1.13c-0.4-0.31-0.71-0.69-0.94-1.11l-7.8,9.81
	c-0.64,0.8-1.55,1.31-2.58,1.43c-0.15,0.02-0.3,0.03-0.44,0.03c-0.87,0-1.7-0.29-2.39-0.84l-1.42-1.13
	c-1.66-1.32-1.94-3.75-0.62-5.41l16.37-20.6c0.73-0.91,1.79-1.39,2.87-1.43c-0.01-0.06-0.03-0.11-0.04-0.17
	c-0.12-1.02,0.17-2.03,0.81-2.83l7.54-9.48c0.82-1.03,2.05-1.52,3.27-1.44c-0.03-0.15-0.08-0.29-0.1-0.45
	c-0.12-1.02,0.17-2.03,0.81-2.83l2.94-3.7c1.32-1.66,3.75-1.94,5.41-0.62l1.42,1.13c0.6,0.48,1.02,1.1,1.24,1.78
	c0.25-0.08,0.51-0.14,0.79-0.17c1.02-0.11,2.03,0.18,2.83,0.82l10.33,8.27c0.8,0.64,1.31,1.56,1.42,2.58
	c0.11,1.02-0.18,2.03-0.82,2.83l-0.91,1.13c0.06,0.04,0.12,0.07,0.18,0.12l7.46,5.97c0.8,0.64,1.31,1.56,1.42,2.58
	c0.09,0.83-0.1,1.64-0.51,2.35c0.34,0.14,0.67,0.31,0.97,0.55l15.92,12.75C248.34,56.67,248.61,59.1,247.29,60.75z M220.57,42.65
	l-5.1-4.08c-0.8-0.64-1.31-1.56-1.42-2.58c-0.11-1.02,0.18-2.03,0.82-2.83l0.9-1.13c-0.06-0.04-0.12-0.07-0.18-0.12l-10.33-8.27
	c-0.39-0.31-0.71-0.69-0.94-1.11l-0.29,0.36c-0.76,0.96-1.88,1.45-3.02,1.45c-0.09,0-0.17-0.02-0.26-0.02
	c0.04,0.15,0.08,0.3,0.1,0.46c0.12,1.02-0.17,2.03-0.81,2.83l-6.12,7.7h12.86c2.12,0,3.85,1.73,3.85,3.85v1.82
	c0,0.6-0.15,1.17-0.4,1.68H220.57z M52.96,23.61l-6.86-5.49c-0.8-0.64-1.8-0.93-2.82-0.82v-1.43c0-2.12-1.73-3.85-3.85-3.85h-2.54
	c-1.04,0-1.98,0.42-2.67,1.09c-0.69-0.67-1.64-1.09-2.67-1.09h-15c-2.12,0-3.85,1.73-3.85,3.85v1.6c0,0-0.01,0-0.01,0h-1.82
	C8.73,17.46,7,19.19,7,21.31v0.63c-0.42-0.16-0.86-0.25-1.33-0.25H3.85C1.73,21.69,0,23.42,0,25.54v22.65
	c0,2.12,1.73,3.85,3.85,3.85h1.82c0.5,0,0.97-0.1,1.41-0.27v3.11c0,2.12,1.73,3.85,3.85,3.85h1.82c0.33,0,0.64-0.05,0.94-0.13v1.07
	c0,2.12,1.73,3.85,3.85,3.85h8.63c1.01,0,1.93-0.4,2.61-1.04c0.69,0.64,1.6,1.04,2.61,1.04h8.62c2.12,0,3.85-1.73,3.85-3.85v-1.82
	c0-0.06-0.02-0.13-0.02-0.19c0.84,0,1.69-0.28,2.4-0.84l4.3-3.45c0.8-0.64,1.31-1.56,1.42-2.58c0.11-1.02-0.18-2.03-0.82-2.83
	l-1.14-1.42c-1.33-1.66-3.75-1.93-5.41-0.6l-4.31,3.45c-1.41,1.13-1.8,3.05-1.08,4.61H31.4c-1.01,0-1.93,0.4-2.61,1.04
	c-0.69-0.64-1.6-1.04-2.61-1.04h-8.63c-0.33,0-0.64,0.05-0.94,0.13v-6.36c0-2.12-1.73-3.85-3.85-3.85h-1.82
	c-0.5,0-0.97,0.1-1.41,0.27v-9.37c0.42,0.16,0.86,0.25,1.33,0.25h1.82c2.12,0,3.85-1.73,3.85-3.85v-9.7c0,0,0.01,0,0.01,0h15
	c1.04,0,1.98-0.42,2.67-1.09c0.69,0.67,1.64,1.09,2.67,1.09h1.96c-0.12,0.46-0.17,0.94-0.11,1.43c0.11,1.02,0.62,1.94,1.42,2.58
	l6.86,5.49c0.69,0.55,1.53,0.85,2.4,0.85c0.14,0,0.29-0.01,0.43-0.02c1.02-0.11,1.94-0.62,2.58-1.42l1.14-1.42
	c0.64-0.8,0.93-1.81,0.82-2.83C54.27,25.17,53.77,24.25,52.96,23.61z M163.37,48.31c0.64,0.8,0.93,1.81,0.82,2.83
	c-0.11,1.02-0.62,1.94-1.42,2.58l-7.59,6.07c-0.69,0.55-1.53,0.84-2.4,0.84c-0.14,0-0.29-0.01-0.43-0.02
	c-0.61-0.07-1.18-0.29-1.68-0.62c-0.15,1.99-1.8,3.57-3.82,3.57h-15.26c-2.12,0-3.85-1.73-3.85-3.85v-1.82
	c0-0.17,0.03-0.33,0.05-0.5c-0.23,0.04-0.46,0.07-0.7,0.07h-3.16v2.26c0,2.12-1.73,3.85-3.85,3.85h-1.82
	c-2.12,0-3.85-1.73-3.85-3.85v-7.28c-0.16,0.02-0.31,0.05-0.47,0.05h-1.82c-2.12,0-3.85-1.73-3.85-3.85V37.31
	c0-2.12,1.73-3.85,3.85-3.85h1.82c0.49,0,0.96,0.1,1.39,0.27c-0.08-0.31-0.14-0.64-0.14-0.98v-6.31c-0.41,0.15-0.86,0.25-1.32,0.25
	h-1.82c-2.12,0-3.85-1.73-3.85-3.85v-6.98c0-2.12,1.73-3.85,3.85-3.85h1.82c2.12,0,3.85,1.73,3.85,3.85v1.74
	c0.41-0.15,0.86-0.25,1.32-0.25h4.67c0.01,0,0.02,0,0.03,0v-1.46c0-2.12,1.73-3.85,3.85-3.85h21.98c1.88,0,3.45,1.36,3.78,3.14
	c0.54-0.39,1.16-0.65,1.84-0.73c1.02-0.11,2.03,0.18,2.83,0.82l4.89,3.91c0.8,0.64,1.31,1.56,1.42,2.58
	c0.11,1.02-0.18,2.03-0.82,2.83l-0.12,0.14c2.12,0,3.85,1.73,3.85,3.85v15.52c0,2.12-1.73,3.85-3.85,3.85h-0.28L163.37,48.31z
	 M158.02,45.65c-0.2-0.47-0.32-0.99-0.32-1.53V28.6c0-0.49,0.1-0.96,0.27-1.39c-0.37-0.14-0.71-0.33-1.03-0.58l-4.89-3.91
	c-0.48-0.39-0.84-0.88-1.09-1.42c-0.44,0.17-0.91,0.28-1.41,0.28h-21.98c-0.01,0-0.02,0-0.03,0v1.46c0,1.78-1.22,3.26-2.85,3.7v6.02
	c0,2.12-1.73,3.85-3.85,3.85h-1.82c-0.49,0-0.96-0.1-1.39-0.27c0.08,0.31,0.14,0.64,0.14,0.98v10.76c0.3-0.07,0.6-0.12,0.92-0.12
	h8.39c2.12,0,3.85,1.73,3.85,3.85v1.82c0,0.17-0.03,0.33-0.05,0.5c0.23-0.04,0.46-0.07,0.7-0.07h15.26c0.39,0,0.76,0.08,1.12,0.18
	c0.22-0.71,0.65-1.36,1.27-1.86l7.59-6.07C157.18,46,157.59,45.79,158.02,45.65z M307.54,35.35h-1.27c0.02-0.16,0.05-0.32,0.05-0.49
	V15.93c0-2.12-1.73-3.85-3.85-3.85h-1.82c-2.12,0-3.85,1.73-3.85,3.85v18.93c0,2.12,1.73,3.85,3.85,3.85h1.27
	c-0.02,0.16-0.05,0.32-0.05,0.49v8.61c0,0.26,0.03,0.51,0.08,0.75h-1.27c-0.3,0-0.59,0.04-0.87,0.11c-0.23-0.73-0.66-1.37-1.27-1.86
	l-6.66-5.33c-0.8-0.64-1.81-0.93-2.83-0.82c-1.02,0.11-1.94,0.62-2.58,1.42l-0.64,0.8c-0.1-0.1-0.2-0.21-0.31-0.3l-13.93-11.15
	c0.42-0.24,0.79-0.55,1.1-0.94l1.14-1.42c1.33-1.66,1.06-4.09-0.6-5.41L259.91,13c-0.8-0.64-1.8-0.93-2.83-0.82
	c-1.02,0.11-1.94,0.62-2.58,1.42l-0.48,0.6c-0.63-1.26-1.93-2.14-3.43-2.14h-1.82c-2.12,0-3.85,1.73-3.85,3.85v7.22
	c0,2.12,1.73,3.85,3.85,3.85h1.82c0.21,0,0.4-0.03,0.6-0.06v10.03c-0.17-0.02-0.35-0.05-0.53-0.05h-1.82
	c-2.12,0-3.85,1.73-3.85,3.85v5.71c0,2.12,1.73,3.85,3.85,3.85h1.82c0.12,0,0.24-0.03,0.36-0.04v9.4c0,2.12,1.73,3.85,3.85,3.85
	h1.82c2.12,0,3.85-1.73,3.85-3.85v-9.44c0-2.12-1.73-3.85-3.85-3.85h-1.82c-0.12,0-0.24,0.03-0.36,0.04v-5.12
	c0.17,0.02,0.35,0.05,0.53,0.05h1.82c2.12,0,3.85-1.73,3.85-3.85V25.83l4.46,3.57c-0.41,0.23-0.79,0.54-1.11,0.93l-1.14,1.42
	c-0.64,0.8-0.93,1.81-0.82,2.83c0.11,1.02,0.62,1.94,1.42,2.58l16.04,12.84c0.71,0.57,1.56,0.84,2.4,0.84
	c1.13,0,2.25-0.49,3.01-1.44l0.64-0.8c0.1,0.1,0.19,0.21,0.31,0.3l6.66,5.33c0.69,0.55,1.53,0.85,2.4,0.85
	c0.14,0,0.29-0.01,0.43-0.02c0.5-0.06,0.97-0.21,1.4-0.44v5.04c0,2.12,1.73,3.85,3.85,3.85h1.82c2.12,0,3.85-1.73,3.85-3.85v-7.25
	c0-0.26-0.03-0.51-0.08-0.75h1.27c2.12,0,3.85-1.73,3.85-3.85v-8.61C311.39,37.08,309.66,35.35,307.54,35.35z"/>
</svg>
