<svg xmlns="http://www.w3.org/2000/svg" viewBox="0 0 310.67 47.09"><defs><style>.cls-1{fill:#1234b7;}</style></defs><g id="Layer_2" data-name="Layer 2"><g id="Layer_1-2" data-name="Layer 1"><path class="cls-1" d="M95.55,27.27v4.21a3.5,3.5,0,0,1-3.5,3.5h-1.8v3.58a3.5,3.5,0,0,1-3.5,3.5H85.17V43.5a3.5,3.5,0,0,1-3.5,3.5H74.51A3.5,3.5,0,0,1,71,43.5v-.81a3.2,3.2,0,0,1-.63.07H58.86a3.5,3.5,0,0,1-3.5-3.5V37.6a4.23,4.23,0,0,1,0-.5H53.89a3.5,3.5,0,0,1-3.5-3.5V27.27a3.5,3.5,0,0,1,3.5-3.5h1.19a3.41,3.41,0,0,1,0-.46V13.86c0-.11,0-.22,0-.34H53.83a3.5,3.5,0,0,1-3.5-3.5V3.68a3.5,3.5,0,0,1,3.5-3.5h1.65A3.5,3.5,0,0,1,59,3.68V10c0,.12,0,.23,0,.34h1.23a3.5,3.5,0,0,1,3.5,3.5v9.45a3.5,3.5,0,0,1-3.5,3.5H59a3.41,3.41,0,0,1,0,.46V33.6a4,4,0,0,1,0,.5H70.38a3.5,3.5,0,0,1,3.5,3.5v.81a3.38,3.38,0,0,1,.63-.07h6.87V34.75a3.5,3.5,0,0,1,3.5-3.5h1.87l.14,0v-4a3.41,3.41,0,0,1,0-.46H85.83a3.5,3.5,0,0,1-3.5-3.5V13.86a3.5,3.5,0,0,1,3.5-3.5h1c0-.11,0-.22,0-.34V3.68a3.5,3.5,0,0,1,3.5-3.5H92a3.5,3.5,0,0,1,3.5,3.5V10a3.5,3.5,0,0,1-3.5,3.5H91c0,.12,0,.23,0,.34v9.45a3.41,3.41,0,0,1,0,.46h1.11A3.5,3.5,0,0,1,95.55,27.27ZM224.78,44.49h0l-1,1.29a3.44,3.44,0,0,1-2.34,1.29l-.4,0a3.49,3.49,0,0,1-2.18-.77L206,36a3.47,3.47,0,0,1-2,.66H186.09a3.5,3.5,0,0,1-3.5-3.5V31.53A3.54,3.54,0,0,1,183,30h-5.41L171,38.3a3.49,3.49,0,0,1-2.34,1.3,2.68,2.68,0,0,1-.4,0,3.44,3.44,0,0,1-2.17-.76l-1.3-1a3.55,3.55,0,0,1-.86-1l-7.08,8.91a3.51,3.51,0,0,1-2.34,1.3l-.41,0a3.46,3.46,0,0,1-2.17-.76l-1.29-1a3.5,3.5,0,0,1-.57-4.92l14.89-18.72a3.47,3.47,0,0,1,2.6-1.3.76.76,0,0,0,0-.16,3.49,3.49,0,0,1,.74-2.58L175.07,9a3.48,3.48,0,0,1,3-1.31,3,3,0,0,1-.08-.41,3.45,3.45,0,0,1,.73-2.57l2.68-3.37a3.51,3.51,0,0,1,4.92-.56l1.29,1a3.43,3.43,0,0,1,1.13,1.62,3.42,3.42,0,0,1,.72-.16A3.46,3.46,0,0,1,192,4l9.39,7.51a3.5,3.5,0,0,1,.54,4.92l-.82,1,.16.11L208.05,23a3.46,3.46,0,0,1,1.29,2.35,3.37,3.37,0,0,1-.46,2.13,3.5,3.5,0,0,1,.88.5l14.47,11.59A3.51,3.51,0,0,1,224.78,44.49ZM200.5,28l-4.64-3.71A3.44,3.44,0,0,1,194.57,22a3.48,3.48,0,0,1,.75-2.58l.82-1-.16-.11-9.39-7.52a3.45,3.45,0,0,1-.86-1l-.26.33a3.49,3.49,0,0,1-2.75,1.32l-.23,0c0,.14.07.27.09.42a3.45,3.45,0,0,1-.74,2.57l-5.56,7H188a3.5,3.5,0,0,1,3.5,3.5v1.65A3.38,3.38,0,0,1,191.1,28ZM48.14,10.72l-6.24-5A3.42,3.42,0,0,0,39.34,5V3.68a3.5,3.5,0,0,0-3.5-3.5H33.53a3.49,3.49,0,0,0-2.43,1,3.49,3.49,0,0,0-2.43-1H15a3.5,3.5,0,0,0-3.5,3.5V5.14H9.87a3.5,3.5,0,0,0-3.5,3.5v.57A3.53,3.53,0,0,0,5.15,9H3.5A3.5,3.5,0,0,0,0,12.48V33.07a3.5,3.5,0,0,0,3.5,3.5H5.15a3.56,3.56,0,0,0,1.28-.25v2.82a3.5,3.5,0,0,0,3.5,3.5h1.66a3.5,3.5,0,0,0,.86-.12v1A3.5,3.5,0,0,0,16,47h7.84a3.51,3.51,0,0,0,2.38-1,3.48,3.48,0,0,0,2.37,1h7.84a3.5,3.5,0,0,0,3.5-3.5V41.84c0-.06,0-.11,0-.17A3.48,3.48,0,0,0,42,40.9L46,37.77a3.5,3.5,0,0,0,.54-4.92l-1-1.29A3.5,3.5,0,0,0,40.54,31l-3.91,3.13a3.49,3.49,0,0,0-1,4.19H28.54a3.48,3.48,0,0,0-2.37.95,3.51,3.51,0,0,0-2.38-.95H16a3.43,3.43,0,0,0-.86.12V32.69a3.5,3.5,0,0,0-3.5-3.5H9.93a3.43,3.43,0,0,0-1.28.25V20.92a3.53,3.53,0,0,0,1.22.23h1.65a3.5,3.5,0,0,0,3.5-3.5V8.83H28.67a3.49,3.49,0,0,0,2.43-1,3.49,3.49,0,0,0,2.43,1h1.78a3.38,3.38,0,0,0-.11,1.31,3.51,3.51,0,0,0,1.3,2.34l6.23,5a3.48,3.48,0,0,0,2.18.76,2.55,2.55,0,0,0,.39,0,3.46,3.46,0,0,0,2.35-1.29l1-1.29a3.51,3.51,0,0,0-.55-4.92ZM148.5,33.17a3.53,3.53,0,0,1,.75,2.58,3.49,3.49,0,0,1-1.3,2.34l-6.89,5.52a3.44,3.44,0,0,1-2.18.77l-.39,0a3.42,3.42,0,0,1-1.53-.57A3.5,3.5,0,0,1,133.48,47H119.61a3.5,3.5,0,0,1-3.5-3.5V41.88a3.42,3.42,0,0,1,0-.45,3.31,3.31,0,0,1-.64.06h-2.87v2.06a3.5,3.5,0,0,1-3.5,3.5h-1.66a3.51,3.51,0,0,1-3.5-3.5V36.93a3,3,0,0,1-.43,0H101.9a3.5,3.5,0,0,1-3.5-3.5V23.17a3.5,3.5,0,0,1,3.5-3.5h1.65a3.55,3.55,0,0,1,1.27.25,3.3,3.3,0,0,1-.13-.89V13.3a3.45,3.45,0,0,1-1.2.22h-1.66a3.5,3.5,0,0,1-3.5-3.5V3.68a3.5,3.5,0,0,1,3.5-3.5h1.66a3.5,3.5,0,0,1,3.5,3.5V5.26a3.41,3.41,0,0,1,1.2-.22h4.28V3.71A3.5,3.5,0,0,1,116,.21h20a3.5,3.5,0,0,1,3.44,2.86,3.46,3.46,0,0,1,1.67-.67,3.5,3.5,0,0,1,2.57.75l4.45,3.56a3.5,3.5,0,0,1,.54,4.92l-.1.13a3.5,3.5,0,0,1,3.49,3.5v14.1a3.5,3.5,0,0,1-3.5,3.5h-.25Zm-4.86-2.42a3.36,3.36,0,0,1-.29-1.39V15.26a3.58,3.58,0,0,1,.24-1.27,3.2,3.2,0,0,1-.93-.53l-4.45-3.55a3.47,3.47,0,0,1-1-1.3,3.45,3.45,0,0,1-1.29.25h-20v1.33a3.51,3.51,0,0,1-2.59,3.37V19a3.5,3.5,0,0,1-3.5,3.5h-1.66a3.38,3.38,0,0,1-1.27-.25,3.3,3.3,0,0,1,.13.89V33a3.34,3.34,0,0,1,.84-.11h7.62a3.5,3.5,0,0,1,3.5,3.5V38a3.14,3.14,0,0,1,0,.45,4.48,4.48,0,0,1,.64-.06h13.87a3.46,3.46,0,0,1,1,.17,3.41,3.41,0,0,1,1.15-1.69l6.89-5.52A3.56,3.56,0,0,1,143.64,30.75Zm135.9-9.35h-1.15c0-.15,0-.29,0-.44V3.75a3.5,3.5,0,0,0-3.5-3.5h-1.65a3.5,3.5,0,0,0-3.5,3.5V21a3.5,3.5,0,0,0,3.5,3.5h1.15a3.13,3.13,0,0,0,0,.44v7.82a3.11,3.11,0,0,0,.07.69H273.3a3.49,3.49,0,0,0-.79.1,3.4,3.4,0,0,0-1.15-1.69L265.31,27a3.51,3.51,0,0,0-4.92.55l-.58.72a3.71,3.71,0,0,0-.29-.27L246.86,17.83a3.42,3.42,0,0,0,1-.85l1-1.29a3.51,3.51,0,0,0-.54-4.92L236.25,1.08a3.5,3.5,0,0,0-4.92.54l-.43.54A3.51,3.51,0,0,0,227.78.22h-1.66a3.5,3.5,0,0,0-3.5,3.5v6.56a3.5,3.5,0,0,0,3.5,3.5h1.66a4.93,4.93,0,0,0,.54,0v9.11a3.58,3.58,0,0,0-.48,0h-1.65a3.5,3.5,0,0,0-3.5,3.5v5.18a3.5,3.5,0,0,0,3.5,3.5h1.65c.12,0,.22,0,.33,0V43.5a3.5,3.5,0,0,0,3.5,3.5h1.66a3.5,3.5,0,0,0,3.5-3.5V34.92a3.5,3.5,0,0,0-3.5-3.5h-1.66l-.33,0V26.8a3.91,3.91,0,0,0,.48.05h1.66a3.5,3.5,0,0,0,3.5-3.5V12.74L241,16a3.36,3.36,0,0,0-1,.85l-1,1.29a3.48,3.48,0,0,0-.74,2.58,3.44,3.44,0,0,0,1.29,2.34l14.58,11.67a3.44,3.44,0,0,0,2.18.77A3.52,3.52,0,0,0,259,34.18l.58-.73a3.7,3.7,0,0,0,.28.28L266,38.57a3.49,3.49,0,0,0,2.18.77l.39,0a3.49,3.49,0,0,0,1.28-.4V43.5a3.5,3.5,0,0,0,3.5,3.5H275a3.5,3.5,0,0,0,3.5-3.5V36.91a3.11,3.11,0,0,0-.07-.69h1.16a3.5,3.5,0,0,0,3.5-3.5V24.9A3.5,3.5,0,0,0,279.54,21.4ZM291.4,7.72a3.48,3.48,0,0,1-1.51.31,3.44,3.44,0,0,1-1.5-.31,3.51,3.51,0,0,1-1.13-.84,3.94,3.94,0,0,1-.71-1.25,4.75,4.75,0,0,1-.24-1.52,4.68,4.68,0,0,1,.24-1.51,3.84,3.84,0,0,1,.71-1.25A3.4,3.4,0,0,1,288.39.5a3.44,3.44,0,0,1,1.5-.31A3.48,3.48,0,0,1,291.4.5a3.4,3.4,0,0,1,1.13.85,3.82,3.82,0,0,1,.7,1.25,4.43,4.43,0,0,1,.25,1.51,4.49,4.49,0,0,1-.25,1.52,3.92,3.92,0,0,1-.7,1.25A3.51,3.51,0,0,1,291.4,7.72Zm.24-1.65a3,3,0,0,0,.4-.91,4.19,4.19,0,0,0,.13-1A4.08,4.08,0,0,0,292,3.06a3.06,3.06,0,0,0-.4-.92,2.08,2.08,0,0,0-.71-.64,2.35,2.35,0,0,0-2.07,0,2.08,2.08,0,0,0-.71.64,3.06,3.06,0,0,0-.4.92,4.08,4.08,0,0,0-.13,1.05,4.19,4.19,0,0,0,.13,1,3,3,0,0,0,.4.91,2,2,0,0,0,1.74.89,2.13,2.13,0,0,0,1-.24A2.11,2.11,0,0,0,291.64,6.07Zm4.48,1.73a1.79,1.79,0,0,1-.44-.27,1.37,1.37,0,0,1-.34-.38h0v2.7h-1.2V2.43h1.13v.73h0a1.48,1.48,0,0,1,.71-.67,2.25,2.25,0,0,1,1-.21,2.6,2.6,0,0,1,1.12.23,2.1,2.1,0,0,1,.79.62,2.63,2.63,0,0,1,.47.91,3.77,3.77,0,0,1,.16,1.13,4.23,4.23,0,0,1-.14,1.06,2.89,2.89,0,0,1-.43.9,2.22,2.22,0,0,1-.73.63,2.13,2.13,0,0,1-1,.24,3.05,3.05,0,0,1-.52,0A2.15,2.15,0,0,1,296.12,7.8Zm0-.89a1.31,1.31,0,0,0,.64.14,1.37,1.37,0,0,0,.7-.16,1.61,1.61,0,0,0,.46-.44,1.59,1.59,0,0,0,.26-.61,2.66,2.66,0,0,0,.08-.69,2.84,2.84,0,0,0-.09-.72,2,2,0,0,0-.28-.61,1.52,1.52,0,0,0-.48-.43,1.23,1.23,0,0,0-.65-.16,1.3,1.3,0,0,0-1.13.52,2.3,2.3,0,0,0-.39,1.4,3.1,3.1,0,0,0,.1.76,1.88,1.88,0,0,0,.3.6A1.43,1.43,0,0,0,296.15,6.91ZM302.68,8a2.9,2.9,0,0,1-1.14-.21A2.37,2.37,0,0,1,300.2,6.3,3.55,3.55,0,0,1,300,5.15a3.1,3.1,0,0,1,.19-1.1,2.64,2.64,0,0,1,.52-.91,2.68,2.68,0,0,1,.82-.63,2.61,2.61,0,0,1,1.1-.23,2.4,2.4,0,0,1,1.14.27,2.54,2.54,0,0,1,.85.71,2.86,2.86,0,0,1,.48,1,2.91,2.91,0,0,1,.08,1.18h-4a2.1,2.1,0,0,0,.09.61,1.56,1.56,0,0,0,.27.51,1.06,1.06,0,0,0,.45.35,1.7,1.7,0,0,0,1.49-.09,1.4,1.4,0,0,0,.48-.68h1.13a2.07,2.07,0,0,1-.33.79,2.17,2.17,0,0,1-.55.58,2.37,2.37,0,0,1-.73.36A2.94,2.94,0,0,1,302.68,8Zm-1.46-3.34H304a2.36,2.36,0,0,0-.12-.54,1.42,1.42,0,0,0-.28-.46,1.25,1.25,0,0,0-1-.43,1.36,1.36,0,0,0-.58.11,1.23,1.23,0,0,0-.44.3,1.44,1.44,0,0,0-.29.46A1.69,1.69,0,0,0,301.22,4.66Zm8.93-1.92a2.05,2.05,0,0,0-1.4-.46,1.94,1.94,0,0,0-1,.26,2,2,0,0,0-.71.71l0,0v-.8h-1.13V7.85h1.19V4.65a1.45,1.45,0,0,1,.1-.55,1.38,1.38,0,0,1,.26-.46,1.12,1.12,0,0,1,.41-.3,1.19,1.19,0,0,1,.54-.11,1,1,0,0,1,.79.28,1.47,1.47,0,0,1,.27.93V7.85h1.2V4.13A1.75,1.75,0,0,0,310.15,2.74ZM291.79,9.36h-1.31v7.49h5.12V15.72h-3.81Zm9.28,6.69a.52.52,0,0,0,.17,0v.83l-.16.05-.21.05-.21,0h-.18a1.11,1.11,0,0,1-.6-.15.75.75,0,0,1-.32-.51,2.09,2.09,0,0,1-.87.5,3.31,3.31,0,0,1-1,.16,2.77,2.77,0,0,1-.71-.1,1.93,1.93,0,0,1-.59-.3,1.31,1.31,0,0,1-.41-.49,1.54,1.54,0,0,1-.15-.7,1.62,1.62,0,0,1,.18-.81,1.38,1.38,0,0,1,.49-.5,2,2,0,0,1,.67-.25,4.52,4.52,0,0,1,.75-.12,3.46,3.46,0,0,1,.61-.09,3.28,3.28,0,0,0,.52-.09.79.79,0,0,0,.36-.2.5.5,0,0,0,.13-.39.66.66,0,0,0-.11-.38.73.73,0,0,0-.27-.22,1.08,1.08,0,0,0-.36-.11l-.38,0a1.5,1.5,0,0,0-.83.21.81.81,0,0,0-.37.65H296a1.7,1.7,0,0,1,.81-1.43,2.23,2.23,0,0,1,.77-.29,4.31,4.31,0,0,1,.88-.09,3.48,3.48,0,0,1,.79.09,2,2,0,0,1,.7.27,1.44,1.44,0,0,1,.49.49,1.3,1.3,0,0,1,.19.73v2.78a.62.62,0,0,0,.06.32.25.25,0,0,0,.23.09Zm-1.6-1.91a1.51,1.51,0,0,1-.67.21,7.32,7.32,0,0,0-.8.11,2.22,2.22,0,0,0-.37.09,1,1,0,0,0-.31.16.71.71,0,0,0-.22.26.93.93,0,0,0-.08.39.5.5,0,0,0,.12.34.83.83,0,0,0,.28.21,1.42,1.42,0,0,0,.35.11l.36,0a1.72,1.72,0,0,0,.43-.05,1.23,1.23,0,0,0,.43-.18,1,1,0,0,0,.34-.32.79.79,0,0,0,.14-.47ZM307,13a4.11,4.11,0,0,1,.15,1.13,3.81,3.81,0,0,1-.14,1.06,2.68,2.68,0,0,1-.43.9,2.11,2.11,0,0,1-1.76.87,3.52,3.52,0,0,1-.56,0,1.82,1.82,0,0,1-.52-.14,1.92,1.92,0,0,1-.46-.27,1.37,1.37,0,0,1-.34-.44h0v.74h-1.14V9.36H303v2.77h0a1.73,1.73,0,0,1,.31-.35,1.51,1.51,0,0,1,.39-.27,1.74,1.74,0,0,1,.45-.17,1.89,1.89,0,0,1,.47-.06,2.59,2.59,0,0,1,1.11.23,2.1,2.1,0,0,1,.79.62A2.83,2.83,0,0,1,307,13Zm-1,1.11a2.46,2.46,0,0,0-.1-.72,1.79,1.79,0,0,0-.28-.61,1.49,1.49,0,0,0-.47-.43,1.28,1.28,0,0,0-.65-.16,1.33,1.33,0,0,0-1.14.52,2.37,2.37,0,0,0-.38,1.4,2.68,2.68,0,0,0,.1.76,1.54,1.54,0,0,0,.3.6,1.5,1.5,0,0,0,.47.4,1.57,1.57,0,0,0,1.34,0,1.52,1.52,0,0,0,.47-.44,1.76,1.76,0,0,0,.26-.61A3.17,3.17,0,0,0,306,14.15Z"/></g></g></svg>