<?xml version="1.0" encoding="utf-8"?>
<!-- Generator: Adobe Illustrator 25.1.0, SVG Export Plug-In . SVG Version: 6.00 Build 0)  -->
<svg version="1.1" id="Layer_1" xmlns="http://www.w3.org/2000/svg" xmlns:xlink="http://www.w3.org/1999/xlink" x="0px" y="0px"
	 viewBox="0 0 339.02 75.43" style="enable-background:new 0 0 339.02 75.43;" xml:space="preserve">
<style type="text/css">
	.st0{fill:#1234B7;}
</style>
<path class="st0" d="M109.73,41.44v4.21c0,1.93-1.57,3.5-3.5,3.5h-1.65c-0.05,0-0.09-0.01-0.14-0.01v3.58c0,1.93-1.57,3.5-3.5,3.5
	h-1.58v1.45c0,1.93-1.57,3.5-3.5,3.5h-7.15c-1.93,0-3.5-1.57-3.5-3.5v-0.8c-0.21,0.04-0.42,0.06-0.63,0.06H73.04
	c-1.93,0-3.5-1.57-3.5-3.5v-1.65c0-0.17,0.03-0.34,0.05-0.5h-1.52c-1.93,0-3.5-1.57-3.5-3.5v-6.33c0-1.93,1.57-3.5,3.5-3.5h1.18
	c-0.02-0.15-0.05-0.31-0.05-0.47v-9.44c0-0.12,0.02-0.23,0.03-0.34h-1.24c-1.93,0-3.5-1.57-3.5-3.5v-6.34c0-1.93,1.57-3.5,3.5-3.5
	h1.65c1.93,0,3.5,1.57,3.5,3.5v6.34c0,0.12-0.02,0.23-0.03,0.34h1.24c1.93,0,3.5,1.57,3.5,3.5v9.44c0,1.93-1.57,3.5-3.5,3.5h-1.18
	c0.02,0.15,0.05,0.31,0.05,0.47v6.33c0,0.17-0.03,0.34-0.05,0.5h11.39c1.93,0,3.5,1.57,3.5,3.5v0.8c0.21-0.04,0.42-0.06,0.63-0.06
	h6.86v-3.59c0-1.93,1.57-3.5,3.5-3.5h1.88c0.05,0,0.09,0.01,0.14,0.01v-3.99c0-0.16,0.03-0.31,0.05-0.47h-1.11
	c-1.93,0-3.5-1.57-3.5-3.5v-9.44c0-1.93,1.57-3.5,3.5-3.5h1.03c-0.01-0.11-0.03-0.22-0.03-0.34v-6.34c0-1.93,1.57-3.5,3.5-3.5h1.65
	c1.93,0,3.5,1.57,3.5,3.5v6.34c0,1.93-1.57,3.5-3.5,3.5h-1.03c0.01,0.11,0.03,0.22,0.03,0.34v9.44c0,0.16-0.03,0.31-0.05,0.47h1.11
	C108.16,37.94,109.73,39.51,109.73,41.44z M238.96,58.66L238.96,58.66l-1.03,1.29c-0.58,0.73-1.42,1.19-2.35,1.29
	c-0.13,0.01-0.26,0.02-0.39,0.02c-0.79,0-1.55-0.27-2.18-0.77l-12.86-10.3c-0.57,0.41-1.27,0.66-2.03,0.66h-17.84
	c-1.93,0-3.5-1.57-3.5-3.5V45.7c0-0.55,0.14-1.06,0.36-1.52h-5.41l-6.59,8.29c-0.58,0.73-1.41,1.19-2.34,1.3
	c-0.14,0.02-0.27,0.02-0.4,0.02c-0.79,0-1.55-0.26-2.17-0.76L178.92,52c-0.36-0.29-0.64-0.63-0.86-1.01l-7.09,8.91
	c-0.58,0.73-1.41,1.19-2.34,1.3c-0.14,0.02-0.27,0.02-0.4,0.02c-0.79,0-1.55-0.26-2.17-0.76l-1.29-1.03
	c-1.51-1.2-1.76-3.41-0.56-4.92l14.88-18.72c0.66-0.83,1.62-1.26,2.61-1.3c-0.01-0.05-0.03-0.1-0.03-0.16
	c-0.11-0.93,0.16-1.84,0.74-2.58l6.85-8.62c0.74-0.93,1.87-1.38,2.97-1.31c-0.03-0.13-0.07-0.27-0.09-0.41
	c-0.11-0.93,0.16-1.84,0.74-2.58l2.67-3.36c1.2-1.51,3.41-1.76,4.92-0.56l1.29,1.03c0.55,0.43,0.92,1,1.13,1.62
	c0.23-0.08,0.47-0.13,0.71-0.16c0.93-0.1,1.84,0.16,2.57,0.75l9.39,7.52c0.73,0.58,1.19,1.42,1.29,2.35
	c0.1,0.93-0.16,1.84-0.75,2.57l-0.82,1.03c0.05,0.04,0.11,0.06,0.16,0.11l6.78,5.43c0.73,0.58,1.19,1.42,1.29,2.35
	c0.08,0.76-0.09,1.49-0.46,2.14c0.31,0.12,0.61,0.28,0.88,0.5l14.47,11.59C239.92,54.94,240.16,57.15,238.96,58.66z M214.67,42.2
	l-4.64-3.71c-0.73-0.58-1.19-1.42-1.29-2.35c-0.1-0.93,0.16-1.84,0.75-2.57l0.82-1.03c-0.05-0.04-0.11-0.07-0.16-0.11l-9.39-7.52
	c-0.35-0.28-0.64-0.63-0.86-1.01l-0.26,0.33c-0.69,0.87-1.71,1.32-2.74,1.32c-0.08,0-0.15-0.01-0.23-0.02
	c0.03,0.14,0.07,0.27,0.09,0.41c0.11,0.93-0.16,1.84-0.74,2.58l-5.56,7h11.69c1.93,0,3.5,1.57,3.5,3.5v1.65
	c0,0.55-0.14,1.06-0.36,1.52H214.67z M62.32,24.89l-6.24-4.99c-0.73-0.58-1.64-0.85-2.56-0.75v-1.3c0-1.93-1.57-3.5-3.5-3.5h-2.31
	c-0.95,0-1.8,0.38-2.43,0.99c-0.63-0.61-1.49-0.99-2.43-0.99H29.21c-1.93,0-3.5,1.57-3.5,3.5v1.46c0,0-0.01,0-0.01,0h-1.65
	c-1.93,0-3.5,1.57-3.5,3.5v0.57c-0.38-0.14-0.78-0.23-1.21-0.23h-1.65c-1.93,0-3.5,1.57-3.5,3.5v20.59c0,1.93,1.57,3.5,3.5,3.5h1.65
	c0.45,0,0.88-0.09,1.28-0.25v2.83c0,1.93,1.57,3.5,3.5,3.5h1.65c0.3,0,0.58-0.05,0.86-0.12v0.97c0,1.93,1.57,3.5,3.5,3.5h7.85
	c0.92,0,1.75-0.36,2.38-0.95c0.63,0.58,1.46,0.95,2.38,0.95h7.83c1.93,0,3.5-1.57,3.5-3.5v-1.65c0-0.06-0.01-0.11-0.02-0.17
	c0.77,0,1.54-0.25,2.18-0.77l3.91-3.13c0.73-0.58,1.19-1.42,1.29-2.35s-0.16-1.84-0.75-2.57l-1.03-1.29
	c-1.21-1.51-3.41-1.75-4.92-0.54l-3.91,3.13c-1.28,1.02-1.64,2.77-0.98,4.19h-7.1c-0.92,0-1.75,0.36-2.38,0.95
	c-0.63-0.58-1.46-0.95-2.38-0.95h-7.85c-0.3,0-0.58,0.05-0.86,0.12v-5.78c0-1.93-1.57-3.5-3.5-3.5h-1.65
	c-0.45,0-0.88,0.09-1.28,0.25v-8.51c0.38,0.14,0.78,0.23,1.21,0.23h1.65c1.93,0,3.5-1.57,3.5-3.5V23c0,0,0.01,0,0.01,0h13.64
	c0.95,0,1.8-0.38,2.43-0.99c0.63,0.61,1.49,0.99,2.43,0.99h1.78c-0.11,0.42-0.15,0.86-0.1,1.3c0.1,0.93,0.56,1.76,1.29,2.35
	l6.24,4.99c0.63,0.5,1.39,0.77,2.18,0.77c0.13,0,0.26-0.01,0.39-0.02c0.93-0.1,1.76-0.56,2.35-1.29l1.03-1.29
	c0.58-0.73,0.85-1.64,0.75-2.57C63.51,26.31,63.05,25.47,62.32,24.89z M162.68,47.34c0.58,0.73,0.85,1.64,0.75,2.57
	c-0.1,0.93-0.56,1.76-1.29,2.35l-6.9,5.52c-0.63,0.5-1.39,0.77-2.18,0.77c-0.13,0-0.26-0.01-0.39-0.02
	c-0.56-0.06-1.07-0.27-1.53-0.57c-0.14,1.81-1.63,3.24-3.47,3.24h-13.87c-1.93,0-3.5-1.57-3.5-3.5v-1.65c0-0.15,0.03-0.3,0.05-0.45
	c-0.21,0.04-0.42,0.06-0.64,0.06h-2.87v2.06c0,1.93-1.57,3.5-3.5,3.5h-1.65c-1.93,0-3.5-1.57-3.5-3.5V51.1
	c-0.14,0.02-0.28,0.04-0.43,0.04h-1.65c-1.93,0-3.5-1.57-3.5-3.5v-10.3c0-1.93,1.57-3.5,3.5-3.5h1.65c0.45,0,0.87,0.09,1.27,0.25
	c-0.08-0.29-0.13-0.58-0.13-0.89v-5.73c-0.38,0.14-0.78,0.23-1.2,0.23h-1.65c-1.93,0-3.5-1.57-3.5-3.5v-6.34
	c0-1.93,1.57-3.5,3.5-3.5h1.65c1.93,0,3.5,1.57,3.5,3.5v1.58c0.38-0.14,0.78-0.23,1.2-0.23h4.25c0.01,0,0.02,0,0.03,0v-1.33
	c0-1.93,1.57-3.5,3.5-3.5h19.98c1.71,0,3.13,1.23,3.44,2.86c0.49-0.36,1.05-0.59,1.67-0.66c0.93-0.1,1.84,0.16,2.57,0.75l4.44,3.56
	c0.73,0.58,1.19,1.42,1.29,2.35c0.1,0.93-0.16,1.84-0.75,2.57l-0.11,0.13c1.93,0,3.5,1.57,3.5,3.5v14.1c0,1.93-1.57,3.5-3.5,3.5
	h-0.25L162.68,47.34z M157.82,44.92c-0.19-0.43-0.29-0.9-0.29-1.39v-14.1c0-0.45,0.09-0.87,0.25-1.27c-0.33-0.13-0.65-0.3-0.93-0.53
	l-4.44-3.56c-0.44-0.35-0.76-0.8-0.99-1.29c-0.4,0.16-0.83,0.25-1.28,0.25h-19.98c-0.01,0-0.02,0-0.03,0v1.33
	c0,1.61-1.11,2.96-2.59,3.37v5.47c0,1.93-1.57,3.5-3.5,3.5h-1.65c-0.45,0-0.87-0.09-1.27-0.25c0.08,0.29,0.13,0.58,0.13,0.89v9.78
	c0.27-0.07,0.55-0.11,0.83-0.11h7.63c1.93,0,3.5,1.57,3.5,3.5v1.65c0,0.15-0.03,0.3-0.05,0.45c0.21-0.04,0.42-0.06,0.64-0.06h13.87
	c0.36,0,0.69,0.07,1.02,0.17c0.2-0.64,0.59-1.24,1.15-1.69l6.9-5.52C157.05,45.24,157.43,45.05,157.82,44.92z M293.72,35.57h-1.16
	c0.02-0.15,0.04-0.29,0.04-0.44V17.92c0-1.93-1.57-3.5-3.5-3.5h-1.65c-1.93,0-3.5,1.57-3.5,3.5v17.21c0,1.93,1.57,3.5,3.5,3.5h1.16
	c-0.02,0.15-0.04,0.29-0.04,0.44v7.82c0,0.23,0.03,0.46,0.07,0.69h-1.16c-0.27,0-0.53,0.04-0.79,0.1c-0.2-0.66-0.6-1.25-1.15-1.69
	l-6.05-4.84c-0.73-0.58-1.64-0.85-2.57-0.75c-0.93,0.1-1.76,0.56-2.35,1.29l-0.58,0.73c-0.09-0.09-0.18-0.19-0.28-0.28L261.04,32
	c0.38-0.22,0.72-0.5,1-0.85l1.03-1.29c1.21-1.51,0.96-3.71-0.54-4.92l-12.11-9.69c-0.73-0.58-1.64-0.85-2.57-0.75
	c-0.93,0.1-1.76,0.56-2.35,1.29l-0.43,0.54c-0.58-1.15-1.75-1.94-3.12-1.94h-1.65c-1.93,0-3.5,1.57-3.5,3.5v6.56
	c0,1.93,1.57,3.5,3.5,3.5h1.65c0.19,0,0.37-0.03,0.55-0.06v9.12c-0.16-0.02-0.32-0.05-0.48-0.05h-1.65c-1.93,0-3.5,1.57-3.5,3.5
	v5.19c0,1.93,1.57,3.5,3.5,3.5h1.65c0.11,0,0.22-0.02,0.33-0.03v8.55c0,1.93,1.57,3.5,3.5,3.5h1.65c1.93,0,3.5-1.57,3.5-3.5v-8.58
	c0-1.93-1.57-3.5-3.5-3.5h-1.65c-0.11,0-0.22,0.02-0.33,0.03v-4.66c0.16,0.02,0.32,0.05,0.48,0.05h1.65c1.93,0,3.5-1.57,3.5-3.5
	v-10.6l4.06,3.25c-0.38,0.21-0.72,0.49-1.01,0.85l-1.03,1.29c-0.58,0.73-0.85,1.64-0.75,2.57c0.1,0.93,0.56,1.76,1.29,2.35
	l14.58,11.67c0.64,0.52,1.42,0.77,2.18,0.77c1.03,0,2.05-0.45,2.74-1.31l0.58-0.73c0.09,0.09,0.18,0.19,0.28,0.28l6.05,4.84
	c0.63,0.5,1.39,0.77,2.18,0.77c0.13,0,0.26-0.01,0.39-0.02c0.45-0.05,0.89-0.19,1.28-0.4v4.58c0,1.93,1.57,3.5,3.5,3.5h1.65
	c1.93,0,3.5-1.57,3.5-3.5v-6.59c0-0.23-0.03-0.46-0.07-0.69h1.16c1.93,0,3.5-1.57,3.5-3.5v-7.82
	C297.22,37.14,295.65,35.57,293.72,35.57z M305.58,21.89c-0.44,0.21-0.95,0.31-1.5,0.31c-0.56,0-1.06-0.1-1.5-0.31
	c-0.44-0.21-0.82-0.49-1.13-0.84s-0.54-0.77-0.71-1.25c-0.16-0.48-0.25-0.98-0.25-1.52c0-0.53,0.08-1.03,0.25-1.51
	c0.16-0.48,0.4-0.89,0.71-1.25s0.68-0.64,1.13-0.85c0.44-0.21,0.95-0.31,1.5-0.31c0.56,0,1.06,0.1,1.5,0.31
	c0.44,0.21,0.82,0.49,1.13,0.85s0.54,0.77,0.71,1.25c0.16,0.48,0.25,0.98,0.25,1.51c0,0.54-0.08,1.05-0.25,1.52
	c-0.16,0.48-0.4,0.89-0.71,1.25S306.02,21.68,305.58,21.89z M305.81,20.24c0.18-0.27,0.32-0.58,0.4-0.92
	c0.09-0.34,0.13-0.69,0.13-1.05s-0.04-0.71-0.13-1.05c-0.09-0.34-0.22-0.65-0.4-0.92c-0.18-0.27-0.42-0.48-0.71-0.64
	s-0.63-0.24-1.03-0.24s-0.74,0.08-1.03,0.24s-0.53,0.38-0.71,0.64c-0.18,0.27-0.32,0.58-0.4,0.92c-0.09,0.34-0.13,0.69-0.13,1.05
	s0.04,0.71,0.13,1.05c0.09,0.34,0.22,0.65,0.4,0.92c0.18,0.27,0.42,0.48,0.71,0.65c0.29,0.16,0.63,0.24,1.03,0.24
	s0.74-0.08,1.03-0.24C305.4,20.73,305.63,20.51,305.81,20.24z M310.3,21.97c-0.16-0.07-0.31-0.16-0.45-0.27s-0.25-0.24-0.34-0.38
	h-0.02v2.71h-1.2V16.6h1.13v0.73h0.02c0.17-0.31,0.4-0.54,0.7-0.68s0.63-0.2,0.98-0.2c0.43,0,0.8,0.08,1.12,0.23
	c0.32,0.15,0.58,0.36,0.79,0.62c0.21,0.26,0.37,0.57,0.47,0.92c0.1,0.35,0.16,0.72,0.16,1.12c0,0.36-0.05,0.72-0.14,1.06
	c-0.09,0.34-0.24,0.65-0.43,0.91s-0.44,0.47-0.73,0.63c-0.29,0.16-0.64,0.24-1.04,0.24c-0.17,0-0.35-0.02-0.52-0.05
	C310.63,22.09,310.46,22.04,310.3,21.97z M310.33,21.08c0.19,0.1,0.4,0.15,0.65,0.15c0.27,0,0.5-0.06,0.69-0.17
	c0.19-0.11,0.34-0.26,0.47-0.44c0.12-0.18,0.21-0.38,0.26-0.61c0.05-0.23,0.08-0.46,0.08-0.7c0-0.24-0.03-0.48-0.09-0.71
	c-0.06-0.23-0.16-0.44-0.28-0.61s-0.28-0.32-0.47-0.43c-0.19-0.11-0.41-0.16-0.65-0.16c-0.5,0-0.88,0.17-1.14,0.52
	s-0.38,0.81-0.38,1.39c0,0.27,0.03,0.53,0.1,0.76c0.07,0.23,0.17,0.44,0.3,0.6C309.98,20.85,310.14,20.98,310.33,21.08z
	 M316.85,22.17c-0.43,0-0.8-0.07-1.13-0.21c-0.33-0.14-0.61-0.34-0.83-0.59c-0.23-0.25-0.4-0.55-0.51-0.9s-0.17-0.73-0.17-1.15
	c0-0.38,0.06-0.75,0.18-1.1c0.12-0.35,0.3-0.65,0.52-0.91s0.5-0.47,0.82-0.62c0.32-0.15,0.69-0.23,1.09-0.23
	c0.43,0,0.81,0.09,1.15,0.27c0.34,0.18,0.62,0.41,0.84,0.71c0.22,0.29,0.39,0.63,0.49,1.01c0.1,0.38,0.13,0.77,0.08,1.18h-3.98
	c0,0.21,0.03,0.41,0.09,0.61c0.06,0.2,0.15,0.37,0.27,0.51c0.12,0.15,0.27,0.26,0.45,0.35c0.18,0.09,0.4,0.13,0.65,0.13
	c0.35,0,0.63-0.08,0.84-0.23c0.21-0.15,0.37-0.38,0.48-0.68h1.13c-0.06,0.29-0.17,0.56-0.33,0.79c-0.15,0.23-0.34,0.42-0.56,0.58
	c-0.22,0.16-0.46,0.28-0.73,0.36C317.43,22.13,317.15,22.17,316.85,22.17z M315.4,18.83h2.79c-0.01-0.19-0.05-0.37-0.12-0.54
	s-0.16-0.33-0.27-0.46c-0.12-0.13-0.26-0.23-0.42-0.31c-0.16-0.08-0.35-0.12-0.55-0.12c-0.21,0-0.4,0.04-0.57,0.11
	c-0.17,0.07-0.32,0.17-0.44,0.3c-0.12,0.13-0.22,0.28-0.29,0.46C315.44,18.44,315.4,18.63,315.4,18.83z M324.33,16.91
	c-0.34-0.31-0.81-0.46-1.41-0.46c-0.36,0-0.68,0.09-0.98,0.26s-0.53,0.41-0.71,0.71l-0.02-0.02v-0.8h-1.13v5.42h1.2v-3.2
	c0-0.2,0.03-0.38,0.09-0.56s0.15-0.33,0.26-0.46s0.25-0.23,0.41-0.3c0.16-0.07,0.34-0.11,0.55-0.11c0.36,0,0.62,0.1,0.79,0.29
	c0.17,0.19,0.26,0.5,0.27,0.93v3.41h1.2V18.3C324.85,17.68,324.67,17.22,324.33,16.91z M305.97,23.53h-1.31v7.49h5.12v-1.13h-3.81
	V23.53z M315.25,30.22c0.05,0,0.1-0.01,0.17-0.02v0.83c-0.04,0.01-0.1,0.03-0.16,0.05c-0.07,0.02-0.13,0.03-0.2,0.05
	c-0.07,0.01-0.14,0.02-0.21,0.03s-0.13,0.01-0.18,0.01c-0.24,0-0.45-0.05-0.61-0.15c-0.16-0.1-0.27-0.27-0.31-0.51
	c-0.24,0.23-0.53,0.4-0.88,0.5c-0.35,0.1-0.68,0.16-1,0.16c-0.24,0-0.48-0.03-0.7-0.1c-0.22-0.07-0.42-0.16-0.59-0.29
	c-0.17-0.13-0.31-0.29-0.41-0.49c-0.1-0.2-0.15-0.43-0.15-0.7c0-0.34,0.06-0.61,0.18-0.82c0.12-0.21,0.28-0.37,0.48-0.49
	c0.2-0.12,0.42-0.2,0.67-0.26c0.25-0.05,0.5-0.09,0.75-0.12c0.22-0.04,0.42-0.07,0.62-0.09s0.37-0.05,0.52-0.09s0.27-0.11,0.36-0.19
	s0.13-0.22,0.13-0.39c0-0.15-0.04-0.28-0.11-0.38c-0.07-0.1-0.16-0.17-0.27-0.23c-0.11-0.05-0.23-0.09-0.36-0.1
	s-0.26-0.03-0.38-0.03c-0.34,0-0.61,0.07-0.83,0.21s-0.34,0.36-0.37,0.65h-1.2c0.02-0.35,0.1-0.64,0.25-0.87
	c0.15-0.23,0.33-0.42,0.56-0.56c0.23-0.14,0.48-0.24,0.77-0.29c0.29-0.06,0.58-0.08,0.88-0.08c0.27,0,0.53,0.03,0.79,0.08
	c0.26,0.06,0.49,0.15,0.7,0.27c0.21,0.13,0.37,0.29,0.5,0.49s0.19,0.44,0.19,0.73v2.79c0,0.15,0.02,0.25,0.06,0.31
	c0.04,0.06,0.11,0.09,0.23,0.09C315.16,30.22,315.2,30.22,315.25,30.22z M313.65,28.3c-0.18,0.12-0.41,0.19-0.67,0.21
	s-0.53,0.06-0.8,0.11c-0.13,0.02-0.25,0.05-0.37,0.09c-0.12,0.04-0.22,0.09-0.31,0.16c-0.09,0.07-0.16,0.15-0.22,0.26
	c-0.05,0.11-0.08,0.24-0.08,0.39c0,0.13,0.04,0.25,0.12,0.34c0.08,0.09,0.17,0.16,0.28,0.21s0.23,0.09,0.36,0.11
	s0.25,0.03,0.35,0.03c0.13,0,0.28-0.02,0.43-0.05c0.15-0.03,0.3-0.09,0.44-0.18c0.14-0.08,0.25-0.19,0.34-0.32
	c0.09-0.13,0.14-0.29,0.14-0.48V28.3z M321.16,27.21c0.1,0.35,0.16,0.72,0.16,1.12c0,0.36-0.05,0.72-0.14,1.06
	c-0.09,0.34-0.24,0.65-0.43,0.91s-0.44,0.47-0.73,0.63c-0.29,0.16-0.64,0.24-1.04,0.24c-0.18,0-0.37-0.01-0.55-0.04
	c-0.19-0.02-0.36-0.07-0.53-0.14c-0.17-0.07-0.32-0.16-0.46-0.27s-0.25-0.26-0.34-0.44h-0.02v0.74h-1.13v-7.49h1.2v2.77h0.02
	c0.08-0.13,0.19-0.25,0.3-0.36c0.12-0.1,0.25-0.19,0.39-0.27s0.29-0.13,0.45-0.17c0.16-0.04,0.31-0.06,0.47-0.06
	c0.43,0,0.8,0.08,1.12,0.23c0.32,0.15,0.58,0.36,0.79,0.62C320.9,26.56,321.06,26.86,321.16,27.21z M320.13,28.32
	c0-0.24-0.03-0.48-0.09-0.71c-0.06-0.23-0.16-0.44-0.28-0.61s-0.28-0.32-0.47-0.43c-0.19-0.11-0.41-0.16-0.65-0.16
	c-0.5,0-0.88,0.17-1.14,0.52s-0.38,0.81-0.38,1.39c0,0.27,0.03,0.53,0.1,0.76c0.07,0.23,0.17,0.44,0.3,0.6
	c0.13,0.17,0.29,0.3,0.48,0.4c0.19,0.1,0.4,0.15,0.65,0.15c0.27,0,0.5-0.06,0.69-0.17c0.19-0.11,0.34-0.26,0.47-0.44
	c0.12-0.18,0.21-0.38,0.26-0.61C320.1,28.79,320.13,28.55,320.13,28.32z"/>
</svg>
