<?xml version="1.0" encoding="utf-8"?>
<!-- Generator: Adobe Illustrator 25.1.0, SVG Export Plug-In . SVG Version: 6.00 Build 0)  -->
<svg version="1.1" id="Layer_1" xmlns="http://www.w3.org/2000/svg" xmlns:xlink="http://www.w3.org/1999/xlink" x="0px" y="0px"
	 viewBox="0 0 175.35 167.5" style="enable-background:new 0 0 175.35 167.5;" xml:space="preserve">
<g>
	<path d="M174.02,47.42c-0.36-3.23-1.95-6.13-4.49-8.17l-21.7-17.38c-2.53-2.03-5.7-2.95-8.92-2.6v-4.53
		c0-6.72-5.46-12.18-12.18-12.18h-8.04c-3.29,0-6.27,1.32-8.46,3.45c-2.19-2.13-5.17-3.45-8.46-3.45H54.3
		c-6.72,0-12.18,5.46-12.18,12.18v5.08c-0.01,0-0.02,0-0.03,0h-5.76c-6.72,0-12.18,5.46-12.18,12.18v1.99
		c-1.32-0.49-2.73-0.8-4.22-0.8h-5.76C7.46,33.2,2,38.66,2,45.38v71.64c0,6.72,5.46,12.18,12.18,12.18h5.76
		c1.57,0,3.07-0.32,4.45-0.87v9.84c0,6.72,5.46,12.18,12.18,12.18h5.76c1.04,0,2.03-0.17,2.99-0.42v3.39
		c0,6.72,5.47,12.18,12.18,12.18H84.8c3.2,0,6.09-1.27,8.27-3.29c2.18,2.02,5.07,3.29,8.27,3.29h27.26
		c6.72,0,12.18-5.46,12.18-12.18v-5.76c0-0.21-0.05-0.4-0.06-0.6c2.66-0.01,5.34-0.88,7.58-2.67l13.62-10.9
		c2.54-2.03,4.14-4.93,4.49-8.17c0.36-3.23-0.56-6.41-2.6-8.95l-3.6-4.49c-4.2-5.24-11.87-6.09-17.12-1.9l-13.62,10.9
		c-4.45,3.57-5.7,9.63-3.41,14.6h-24.72c-3.2,0-6.09,1.27-8.27,3.29c-2.18-2.02-5.07-3.29-8.27-3.29H57.49
		c-1.04,0-2.03,0.17-2.99,0.41v-20.1c0-6.72-5.46-12.18-12.18-12.18h-5.76c-1.57,0-3.07,0.32-4.45,0.87V74.76
		c1.32,0.49,2.73,0.8,4.22,0.8h5.76c6.72,0,12.18-5.47,12.18-12.18V32.69c0.01,0,0.02,0,0.03,0h47.46c3.29,0,6.27-1.32,8.46-3.45
		c2.19,2.13,5.17,3.45,8.46,3.45h6.19c-0.39,1.46-0.53,2.99-0.36,4.53c0.36,3.23,1.95,6.13,4.49,8.17l21.7,17.38
		c2.18,1.75,4.84,2.67,7.59,2.67c0.45,0,0.91-0.02,1.36-0.08c3.23-0.36,6.13-1.95,8.17-4.49l3.6-4.49
		C173.46,53.83,174.38,50.66,174.02,47.42z"/>
</g>
</svg>
