<svg version="1.2" baseProfile="tiny" id="Layer_1" xmlns="http://www.w3.org/2000/svg" x="0" y="0" viewBox="0 0 344 64.5" xml:space="preserve"><path fill="#010202" d="M66.5 34.5c-.1 1.2-.1 2.4-.1 3.8v6.8c0 2.5.1 3.9.2 4.2.1.3.6.4 1.4.4h.9v.7c-1.4-.1-2.6-.1-3.6-.1s-2.2 0-3.6.1v-.7h1c.5 0 .9-.1 1-.2.2-.1.3-.4.3-.8.1-.9.1-2.1.1-3.6v-6.8c0-1.3 0-2.6-.1-3.7h-1.2c-2 0-3 0-3.2.1-.2.1-.3.4-.4 1.1l-.2 1.5h-.7v-1.4c0-.6-.1-1.4-.2-2.5 4.3.1 6.8.1 7.6.1l6.6-.1-.3 3.9h-.7l-.1-1.6c0-.5-.1-.9-.2-1-.1-.1-.3-.2-.6-.2-.9-.1-1.9-.1-3-.1h-.9zm17.1 10.1h-6.9l-.8 2c-.5 1.3-.8 2-.8 2.3 0 .2 0 .3.1.4.1.1.3.1.8.2l1.1.1v.7c-.8-.1-1.6-.1-2.6-.1-1.1 0-2.1 0-3 .1v-.7h.4c.6 0 .9-.1 1.1-.2.2-.1.3-.3.5-.7.6-1.1 1.1-2.4 1.7-3.7l3.3-7.4c.9-2 1.5-3.4 1.8-4.3h.8l6 14c.4.9.7 1.5.8 1.7.1.2.3.3.5.4.2.1.6.1 1.2.2v.7c-1-.1-2-.1-2.9-.1-.9 0-2 0-3.5.1v-.7l1.2-.1c.4 0 .7-.1.7-.1.1-.1.2-.2.2-.3 0-.1-.1-.5-.4-1.1l-1.3-3.4zm-6.4-.9h6l-3-7.2-3 7.2zm18.5 5.5c.8 0 1.5.1 2.3.1 1.5 0 2.7 0 3.5-.1l1.8-.3.7-2.9h.7c-.2 1.5-.4 2.9-.5 4.2-.7.1-1.7.2-2.9.2l-5.6-.1c-.8 0-1.9 0-3.6.1v-.6c.6-.3 1-.6 1.1-.9.1-.3.2-1.6.2-3.8v-6.5c0-2.4-.1-3.7-.2-4-.1-.3-.4-.4-1-.4H91v-.7c1.9.1 3.1.1 3.8.1.8 0 1.9 0 3.4-.1v.7h-1.5c-.4 0-.7.1-.8.4-.1.2-.2 1.2-.2 3v11.6zm15.1 0c.8 0 1.5.1 2.3.1 1.5 0 2.7 0 3.5-.1l1.8-.3.7-2.8h.7c-.2 1.5-.4 2.9-.5 4.2-.7.1-1.7.2-2.9.2l-5.7-.1c-.8 0-1.9 0-3.5.1v-.6c.6-.3 1-.6 1.1-.9.1-.3.2-1.6.2-3.8v-6.5c0-2.4-.1-3.7-.2-4-.1-.3-.4-.4-1-.4H106v-.7c1.9.1 3.1.1 3.8.1.8 0 1.9 0 3.4-.1v.7h-1.5c-.4 0-.7.1-.8.4-.1.2-.2 1.2-.2 3v10.9l.1.6zm10.7.4h.8c.7 0 1.2-.2 1.3-.5.1-.4.2-2.1.2-5.1v-4c0-3.2-.1-4.9-.2-5.2-.1-.3-.5-.5-1.1-.5h-1v-.7c1.3.1 2.6.1 3.9.1 1.1 0 2.1 0 2.9-.1v.7h-.9c-.6 0-.9.1-1.1.2-.1.1-.2.5-.2 1 0 .8-.1 2.4-.1 4.5v4c0 3.1.1 4.8.2 5.1.1.3.6.5 1.3.5h.8v.7c-1-.1-2.1-.1-3.2-.1-1.4 0-2.6 0-3.7.1v-.7zm13.4-13.5v8.2c0 1.9 0 3.2.1 3.9.1.6.1.9.3 1 .1.1.5.2 1.1.3l.8.1v.7c-.9-.1-1.7-.1-2.4-.1-.5 0-1.6 0-3.3.1v-.7h.9c.5 0 .9-.1 1-.2.2-.1.3-.4.3-.8.1-.9.1-2.1.1-3.6v-9.2c0-.5-.1-.8-.2-.9-.1-.2-.3-.3-.5-.5s-.5-.2-.9-.2h-.7v-.7c1 .1 1.8.1 2.3.1.6 0 1.2 0 1.9-.1.8 1 1.5 1.9 2.2 2.8.7.9 1.4 1.8 2.2 2.7l4.1 5c1.5 1.8 2.5 3 3.2 3.7v-7.6c0-3.2-.1-4.9-.2-5.2-.1-.3-.6-.5-1.4-.6l-.9-.1v-.7c1.3.1 2.3.1 3 .1.7 0 1.7 0 2.9-.1v.7h-.9c-.7 0-1.2.2-1.3.7-.1.3-.1 2.1-.1 5.2v5.4c0 1.4.1 3.2.2 5.2-1.1-.2-1.7-.3-1.9-.4-.2-.1-.3-.2-.5-.4-.9-1-1.8-2.1-2.8-3.2l-8.6-10.6zm20.9 0v8.2c0 1.9 0 3.2.1 3.9.1.6.1.9.3 1 .1.1.5.2 1.1.3l.8.1v.7c-.9-.1-1.7-.1-2.4-.1-.5 0-1.6 0-3.3.1v-.7h.9c.5 0 .9-.1 1-.2.2-.1.3-.4.3-.8.1-.9.1-2.1.1-3.6v-9.2c0-.5-.1-.8-.2-.9-.1-.2-.3-.3-.5-.5-.2-.1-.5-.2-.9-.2h-.7v-.7c1 .1 1.8.1 2.3.1.6 0 1.2 0 1.9-.1.8 1 1.5 1.9 2.2 2.8.7.9 1.4 1.8 2.2 2.7l4.1 5c1.5 1.8 2.5 3 3.2 3.7v-7.6c0-3.2-.1-4.9-.2-5.2-.1-.3-.6-.5-1.4-.6l-.9-.1v-.7c1.3.1 2.3.1 3 .1.7 0 1.7 0 2.9-.1v.7h-.9c-.7 0-1.2.2-1.3.7-.1.3-.1 2.1-.1 5.2v5.4c0 1.4.1 3.2.2 5.2-1.1-.2-1.7-.3-1.9-.4-.2-.1-.3-.2-.5-.4-.9-1-1.8-2.1-2.8-3.2l-8.6-10.6zm27-1.9v-.7c1.6.1 2.8.1 3.6.1.8 0 1.9 0 3.4-.1v.7h-.9c-.7 0-1.2.1-1.3.4-.2.3-.2 1.6-.2 3.9v4.6c0 1.7.1 2.9.3 3.5.2.7.7 1.2 1.4 1.7.8.5 1.8.7 3.1.7s2.5-.2 3.4-.7c.6-.3 1.1-.9 1.4-1.6.3-.7.4-2.1.4-4.1v-4.5c0-2.1-.1-3.3-.3-3.6-.2-.3-.7-.4-1.5-.4h-.6v-.7c1.6.1 2.7.1 3.1.1.7 0 1.6 0 2.7-.1v.7h-.8c-.6 0-1 .2-1.2.5-.2.3-.3 1.5-.3 3.5v4.4c0 2-.1 3.4-.3 4.1-.2.7-.6 1.3-1.1 1.9-.5.6-1.3 1-2.1 1.4-.9.3-1.9.5-3.1.5-1.2 0-2.3-.1-3.3-.4-.9-.3-1.6-.7-2.1-1.1-.5-.4-.8-1-1-1.6-.2-.6-.3-1.7-.3-3.2v-5.9c0-2.2-.1-3.5-.2-3.8-.1-.3-.6-.4-1.3-.4h-.9zm23.1 1.9v8.2c0 1.9 0 3.2.1 3.9.1.6.2.9.3 1 .1.1.5.2 1.1.3l.8.1v.7c-.9-.1-1.7-.1-2.4-.1-.5 0-1.6 0-3.3.1v-.7h.9c.5 0 .9-.1 1-.2.2-.1.3-.4.3-.8.1-.9.1-2.1.1-3.6v-9.2c0-.5-.1-.8-.2-.9-.1-.2-.3-.3-.5-.5-.2-.1-.5-.2-.9-.2h-.7v-.7c1 .1 1.8.1 2.3.1.6 0 1.2 0 1.9-.1.8 1 1.5 1.9 2.2 2.8.7.9 1.4 1.8 2.2 2.7l4.1 5c1.5 1.8 2.5 3 3.2 3.7v-7.6c0-3.2-.1-4.9-.2-5.2-.1-.3-.6-.5-1.4-.6l-.9-.1v-.7c1.3.1 2.3.1 3 .1.7 0 1.7 0 2.9-.1v.7h-.9c-.7 0-1.2.2-1.3.7-.1.3-.1 2.1-.1 5.2v5.4c0 1.4.1 3.2.2 5.2-1.1-.2-1.7-.3-1.9-.4-.2-.1-.3-.2-.5-.4-.9-1-1.8-2.1-2.8-3.2l-8.6-10.6zm18.5 13.5h.8c.7 0 1.2-.2 1.3-.5.1-.4.2-2.1.2-5.1v-4c0-3.2-.1-4.9-.2-5.2-.1-.3-.5-.5-1.1-.5h-1v-.7c1.3.1 2.6.1 3.9.1 1.1 0 2.1 0 2.9-.1v.7h-.9c-.6 0-.9.1-1.1.2-.1.1-.2.5-.2 1 0 .8-.1 2.4-.1 4.5v4c0 3.1.1 4.8.2 5.1.1.3.6.5 1.3.5h.8v.7c-1-.1-2.1-.1-3.2-.1-1.4 0-2.6 0-3.7.1v-.7zm17 1c-.4-1.1-.7-2.1-1.1-3L236 37c-.6-1.5-1-2.4-1.1-2.5-.1-.1-.4-.2-1-.2h-.5v-.7c1.2.1 2.3.1 3.1.1.9 0 2 0 3.3-.1v.7h-1.2c-.4 0-.7 0-.8.1-.1.1-.2.2-.2.4 0 .1 0 .2.1.3l1.5 4.1 3.3 8.3 3.2-7.9c1-2.6 1.6-4.2 1.6-4.6 0-.4-.2-.5-.6-.6h-.5l-1-.1v-.7c1 .1 1.9.1 2.6.1.7 0 1.6 0 2.7-.1v.7h-.5c-.4 0-.7.1-.8.3-.2.2-.5.8-.9 1.9l-4 9.8c-.8 1.8-1.3 3.3-1.6 4.4h-1.3zm15.6-8.3v6.9c1.2.1 2.4.1 3.7.1.9 0 1.6 0 2.2-.1.4 0 .8-.1 1.2-.3.2-.7.4-1.6.6-2.6h.8c-.2 1.7-.3 2.9-.3 3.5v.5c-.9.1-1.8.1-2.7.1h-1.9c-2.1-.1-3.6-.1-4.5-.1-.9 0-2.2 0-3.7.1v-.7h.4c.7 0 1.1-.1 1.3-.2.2-.1.3-.4.4-.9.1-.5.1-1.6.1-3.3v-6.5c0-1.1 0-1.9-.1-2.6-.1-.7-.1-1.1-.2-1.2-.1-.1-.1-.2-.3-.3-.1-.1-.5-.1-1-.2l-.9-.1v-.7h4.2l4.6-.1h2.2c.7 0 1.5 0 2.2.1-.3.9-.4 2.2-.5 3.6h-.8c0-.9 0-1.6-.1-2.2-.9-.3-2.1-.5-3.4-.5-1.1 0-2.2 0-3.4.1v6.4c.8.1 1.5.1 2.1.1 1.9 0 3-.1 3.2-.2.3-.1.4-.5.4-1.2V39h.8c-.1 1.2-.1 2.2-.1 2.9 0 .8 0 1.6.1 2.7h-.8v-.7c0-.8-.1-1.2-.4-1.4-.3-.2-1.4-.3-3.2-.3-.7 0-1.4 0-2.2.1m20.8-.5c.8 1.1 1.7 2.4 2.9 3.9l2.3 3c.4.5.7.8.8.9.1.1.3.1.4.1h.3v.7c-.7-.1-1.2-.1-1.7-.1s-.9 0-1.4.1l-4.2-5.7c-.8-1-1.6-2.1-2.5-3.1l.1-.4c.5 0 .8.1 1 .1 1.3 0 2.3-.3 3.1-1 .7-.7 1.1-1.6 1.1-2.7 0-1-.3-1.8-.9-2.4-.6-.6-1.5-.9-2.7-.9-.8 0-1.7.1-2.5.4-.1 1.3-.1 2.6-.1 4v5.7c0 2.8.1 4.3.2 4.7.1.3.6.5 1.3.5h.9v.7c-1.3-.1-2.4-.1-3.3-.1-.7 0-1.9 0-3.7.1v-.7h.9c.7 0 1.1-.1 1.2-.4.1-.3.2-1.9.2-4.7v-5.7c0-2.5-.1-3.8-.2-4.1-.1-.3-.6-.4-1.4-.4h-.6v-.7c1.5.1 2.6.1 3.4.1.5 0 1.3 0 2.3-.1 1.1 0 2-.1 2.5-.1 1.4 0 2.4.1 3.1.4.7.3 1.2.7 1.6 1.3.4.5.6 1.2.6 2 0 1.1-.4 2.1-1.2 3-1.1.7-2.3 1.3-3.8 1.6m20.6-7.5c-.2.8-.3 1.9-.3 3.2h-.8v-.9c0-.6-.1-1-.2-1.2-.2-.2-.6-.5-1.3-.7-.7-.2-1.4-.4-2.2-.4-1.3 0-2.3.3-3 .9-.7.6-1.1 1.4-1.1 2.4 0 .6.1 1.2.4 1.6.3.4.7.8 1.2 1 .5.2 1.6.4 3.2.5 1.6.2 2.7.4 3.3.6.6.3 1 .7 1.4 1.3.3.6.5 1.3.5 2.1 0 1.6-.7 3-2 4.1-1.3 1.2-3.1 1.7-5.3 1.7-.8 0-1.5-.1-2.3-.2-.8-.2-1.5-.4-2.3-.7.2-.9.2-2.1.2-3.6h.8v.6c0 .8 0 1.2.1 1.4.1.2.3.4.6.6.4.3.9.5 1.5.7.6.2 1.2.2 1.9.2 1.5 0 2.6-.3 3.4-1.1.8-.7 1.2-1.6 1.2-2.7 0-.6-.1-1.2-.4-1.6-.3-.4-.7-.8-1.2-1-.5-.2-1.4-.4-2.8-.5-1.8-.1-3-.4-3.6-.6-.6-.3-1.1-.7-1.5-1.3-.4-.6-.5-1.4-.5-2.3 0-1.5.6-2.8 1.7-3.8s2.7-1.5 4.6-1.5c.8 0 1.6.1 2.4.3.8.3 1.6.5 2.4.9m4.5 15.3h.8c.7 0 1.2-.2 1.3-.5.1-.4.2-2.1.2-5.1v-4c0-3.2-.1-4.9-.2-5.2-.1-.3-.5-.5-1.1-.5h-1v-.7c1.3.1 2.6.1 3.9.1 1.1 0 2.1 0 2.9-.1v.7h-.9c-.6 0-.9.1-1.1.2-.1.1-.2.5-.2 1 0 .8-.1 2.4-.1 4.5v4c0 3.1.1 4.8.2 5.1.1.3.6.5 1.3.5h.8v.7c-1-.1-2.1-.1-3.2-.1-1.3 0-2.6 0-3.7.1v-.7zm18.4-15.1c-.1 1.2-.1 2.4-.1 3.8v6.8c0 2.5.1 3.9.2 4.2.1.3.6.4 1.4.4h.9v.7c-1.4-.1-2.6-.1-3.6-.1s-2.2 0-3.5.1v-.7h1c.5 0 .9-.1 1-.2.2-.1.3-.4.3-.8.1-.9.1-2.1.1-3.6v-6.8c0-1.3 0-2.6-.1-3.7h-1.2c-2 0-3 0-3.2.1-.2.1-.3.4-.4 1.1l-.2 1.6h-.7V36c0-.6 0-1.4-.2-2.5 4.3.1 6.8.1 7.6.1l6.6-.1-.3 3.9h-.7l-.1-1.6c0-.5-.1-.9-.2-1-.1-.1-.3-.2-.6-.2-.9-.1-1.9-.1-3-.1h-1zm15.8 7.5c.5-.7 1.3-2 2.3-3.8l2.7-4.7h1.8v.3c-1 1.1-2.2 2.7-3.6 4.9s-2.2 3.6-2.5 4.4c-.1.3-.1.9-.1 2 0 1.4 0 2.6.1 3.4 0 .5.1.7.2.8.1.1.5.2 1.2.2l.9.1v.7c-1.4-.1-2.4-.1-3.2-.1l-3.8.1v-.7h1c.7 0 1.1-.1 1.2-.4.1-.3.2-1.5.2-3.8v-2.1c-1-1.9-2-3.5-2.8-4.9-.9-1.4-1.6-2.4-2.2-3-.3-.3-.6-.6-.9-.7-.2-.1-.7-.2-1.2-.2v-.7c.3-.1 1-.2 1.9-.4l.9-.2c.4.1.7.3.9.5.4.4 1 1.2 1.8 2.6.8 1 1.8 2.9 3.2 5.7"/><path fill-rule="evenodd" fill="#010202" d="M0 53.3h.9c5.4 0 10.6 1 15.2 2.7V32.9c0-4.3 1.6-6.6 3.9-8.2 2.2 1.6 4 4 4 8.2v27.2c2 1.3 3.7 2.8 5.3 4.4V32.8c0-7.2-3.8-11.2-8.1-13.7-.4-.2-.8-.5-1.2-.6-.4.1-.8.3-1.2.6-4.1 2.3-8.1 6.5-8.1 13.7v17.7H5.3V33.2c0-14.3 6.3-21.9 14.7-26.7 7.9 4.8 14.7 12.3 14.7 26.7v17.3H40V32.9c0-17-8.9-26.3-19-32.3 0 0-.8-.5-1-.5-.2 0-1 .5-1 .5C9.3 6.1 0 15.8 0 32.8v20.5z"/></svg>